<svg width="153" height="88" viewBox="0 0 153 88" fill="none" xmlns="http://www.w3.org/2000/svg">
<g filter="url(#filter0_d_729_621)">
<path fill-rule="evenodd" clip-rule="evenodd" d="M51.8055 54.7731C56.5604 52.8035 60.8809 49.9166 64.5201 46.2773C68.1594 42.6381 71.0462 38.3176 73.0158 33.5626C74.9853 28.8077 75.999 23.7113 75.999 18.5646L75.9979 18.5657C70.8574 18.5658 65.7672 19.5783 61.018 21.5455C56.2686 23.5128 51.9532 26.3963 48.3181 30.0314C44.6831 33.6665 41.7996 37.9819 39.8324 42.7314C37.8652 47.4806 36.8526 52.5708 36.8525 57.7114L36.8076 57.7563C41.9543 57.7563 47.0506 56.7426 51.8055 54.7731Z" fill="#858585"/>
</g>
<g filter="url(#filter1_d_729_621)">
<path fill-rule="evenodd" clip-rule="evenodd" d="M100.218 54.7731C95.463 52.8035 91.1426 49.9166 87.5033 46.2773C83.8641 42.6381 80.9772 38.3176 79.0077 33.5626C77.0381 28.8077 76.0244 23.7113 76.0244 18.5646L76.0255 18.5657C81.166 18.5658 86.2562 19.5783 91.0054 21.5455C95.7548 23.5128 100.07 26.3963 103.705 30.0314C107.34 33.6665 110.224 37.9819 112.191 42.7314C114.158 47.4806 115.171 52.5708 115.171 57.7114L115.216 57.7563C110.069 57.7563 104.973 56.7426 100.218 54.7731Z" fill="#858585"/>
</g>
<g filter="url(#filter2_d_729_621)">
<path fill-rule="evenodd" clip-rule="evenodd" d="M51.8055 2.98329C56.5604 4.95286 60.8809 7.83971 64.5201 11.479C68.1594 15.1183 71.0462 19.4388 73.0158 24.1937C74.9853 28.9487 75.999 34.045 75.999 39.1918L75.9979 39.1906C70.8574 39.1906 65.7672 38.178 61.018 36.2108C56.2686 34.2435 51.9532 31.36 48.3181 27.7249C44.6831 24.0899 41.7996 19.7744 39.8324 15.025C37.8652 10.2757 36.8526 5.18551 36.8525 0.0449528L36.8076 -7.69975e-10C41.9543 -6.6886e-10 47.0506 1.01372 51.8055 2.98329Z" fill="#2EAF7D"/>
</g>
<g filter="url(#filter3_d_729_621)">
<path fill-rule="evenodd" clip-rule="evenodd" d="M100.218 2.98329C95.463 4.95286 91.1426 7.83971 87.5033 11.479C83.8641 15.1183 80.9772 19.4388 79.0077 24.1937C77.0381 28.9487 76.0244 34.045 76.0244 39.1918L76.0255 39.1906C81.166 39.1906 86.2562 38.178 91.0054 36.2108C95.7548 34.2435 100.07 31.36 103.705 27.7249C107.34 24.0899 110.224 19.7744 112.191 15.025C114.158 10.2757 115.171 5.18551 115.171 0.0449528L115.216 -7.69975e-10C110.069 -6.6886e-10 104.973 1.01372 100.218 2.98329Z" fill="#2EAF7D"/>
</g>
<path d="M12.9605 79.9611L13.0298 80.2845C12.3983 81.1162 11.6129 81.7708 10.6734 82.2482C9.73386 82.7103 8.74045 82.9413 7.69314 82.9413C5.86034 82.9413 4.28937 82.279 2.98022 80.9545C1.65568 79.6453 0.993408 78.0744 0.993408 76.2416C0.993408 74.4088 1.65568 72.8301 2.98022 71.5056C4.28937 70.181 5.86034 69.5187 7.69314 69.5187C8.74045 69.5187 9.74156 69.7729 10.6965 70.2811C11.6668 70.774 12.4908 71.4671 13.1684 72.3604L11.0661 73.7234C10.1266 72.5991 9.00228 72.0369 7.69314 72.0369C6.52261 72.0369 5.5292 72.4451 4.71291 73.2614C3.89662 74.0776 3.48848 75.071 3.48848 76.2416C3.48848 77.4121 3.89662 78.4055 4.71291 79.2218C5.5292 80.0381 6.52261 80.4462 7.69314 80.4462C8.98688 80.4462 10.1112 79.8764 11.0661 78.7366L12.9605 79.9611ZM28.7874 82.5486H26.2692V80.8159C25.0678 82.2328 23.5354 82.9413 21.6718 82.9413C19.8544 82.9413 18.345 82.2636 17.1437 80.9083C15.9578 79.6145 15.3648 78.059 15.3648 76.2416C15.3648 74.4088 15.9655 72.8455 17.1668 71.5518C17.7521 70.8587 18.422 70.3504 19.1767 70.027C19.9468 69.6882 20.7785 69.5187 21.6718 69.5187C23.5046 69.5187 25.037 70.2272 26.2692 71.6442V69.9346H28.7874V82.5486ZM26.2692 76.2416C26.2692 75.071 25.861 74.0776 25.0447 73.2614C24.2285 72.4451 23.235 72.0369 22.0645 72.0369C20.894 72.0369 19.9006 72.4451 19.0843 73.2614C18.268 74.0776 17.8599 75.071 17.8599 76.2416C17.8599 77.4121 18.268 78.4055 19.0843 79.2218C19.9006 80.0381 20.894 80.4462 22.0645 80.4462C23.235 80.4462 24.2285 80.0381 25.0447 79.2218C25.861 78.4055 26.2692 77.4121 26.2692 76.2416ZM38.7088 72.0138L38.3854 72.2217C38.0157 72.0985 37.6538 72.0369 37.2995 72.0369C36.4525 72.0369 35.744 72.3218 35.1741 72.8917C34.5889 73.477 34.2962 74.1855 34.2962 75.0171V82.5486H31.8011V69.9346H34.2962V70.928C35.2203 69.9885 36.3523 69.5187 37.6923 69.5187C37.8155 69.5187 37.9618 69.5264 38.1312 69.5418C38.3007 69.5572 38.4932 69.5804 38.7088 69.6112V72.0138ZM54.4286 76.2416C54.4286 78.0282 53.8356 79.5837 52.6497 80.9083C51.433 82.2636 49.9236 82.9413 48.1216 82.9413C47.1667 82.9413 46.3119 82.7642 45.5572 82.4099C44.8026 82.0557 44.1172 81.5243 43.5011 80.8159V82.5486H41.0061V65.8917H43.5011V71.6442C44.1172 70.9511 44.8026 70.4274 45.5572 70.0732C46.3119 69.7036 47.1667 69.5187 48.1216 69.5187C49.9082 69.5187 51.4099 70.1964 52.6266 71.5518C53.8279 72.8763 54.4286 74.4396 54.4286 76.2416ZM51.9104 76.2416C51.9104 75.071 51.5023 74.0776 50.686 73.2614C49.8697 72.4451 48.8763 72.0369 47.7058 72.0369C46.5353 72.0369 45.5418 72.4451 44.7256 73.2614C43.9093 74.0776 43.5011 75.071 43.5011 76.2416C43.5011 77.4121 43.9093 78.4055 44.7256 79.2218C45.5418 80.0381 46.5353 80.4462 47.7058 80.4462C48.8763 80.4462 49.8697 80.0381 50.686 79.2218C51.5023 78.4055 51.9104 77.4121 51.9104 76.2416ZM69.8485 76.2416C69.8485 78.0744 69.1862 79.6453 67.8616 80.9545C66.5371 82.279 64.9584 82.9413 63.1256 82.9413C61.2928 82.9413 59.7219 82.279 58.4127 80.9545C57.0882 79.6453 56.4259 78.0744 56.4259 76.2416C56.4259 74.4088 57.0882 72.8301 58.4127 71.5056C59.7219 70.181 61.2928 69.5187 63.1256 69.5187C64.9584 69.5187 66.5371 70.181 67.8616 71.5056C69.1862 72.8301 69.8485 74.4088 69.8485 76.2416ZM67.3303 76.2416C67.3303 75.071 66.9221 74.0776 66.1058 73.2614C65.2896 72.4451 64.2962 72.0369 63.1256 72.0369C61.9551 72.0369 60.9617 72.4451 60.1454 73.2614C59.3291 74.0776 58.921 75.071 58.921 76.2416C58.921 77.4121 59.3291 78.4055 60.1454 79.2218C60.9617 80.0381 61.9551 80.4462 63.1256 80.4462C64.2962 80.4462 65.2896 80.0381 66.1058 79.2218C66.9221 78.4055 67.3303 77.4121 67.3303 76.2416ZM83.3401 82.5486H80.822V75.0171C80.822 74.2009 80.537 73.4924 79.9672 72.8917C79.3665 72.3218 78.658 72.0369 77.8417 72.0369C76.9947 72.0369 76.2862 72.3218 75.7163 72.8917C75.131 73.477 74.8384 74.1855 74.8384 75.0171V82.5486H72.3433V69.9346H74.8384V70.928C75.7625 69.9885 76.8945 69.5187 78.2345 69.5187C79.713 69.5187 80.9375 70.0886 81.9078 71.2283C82.8627 72.2756 83.3401 73.5386 83.3401 75.0171V82.5486Z" fill="#858585"/>
<path d="M127.293 82.8357H124.775V81.8423C123.82 82.7664 122.688 83.2284 121.379 83.2284C119.916 83.2284 118.691 82.6663 117.706 81.5419C116.766 80.4638 116.296 79.1932 116.296 77.73V70.2217H118.792V77.73C118.792 78.1459 118.869 78.5309 119.023 78.8851C119.177 79.2394 119.392 79.5628 119.669 79.8554C119.962 80.1327 120.286 80.3483 120.64 80.5023C120.994 80.6563 121.379 80.7333 121.795 80.7333C122.211 80.7333 122.596 80.6563 122.95 80.5023C123.304 80.3483 123.628 80.1327 123.92 79.8554C124.49 79.2548 124.775 78.5463 124.775 77.73V70.2217H127.293V82.8357ZM137.197 72.3009L136.873 72.5088C136.504 72.3856 136.142 72.324 135.788 72.324C134.941 72.324 134.232 72.609 133.662 73.1788C133.077 73.7641 132.784 74.4726 132.784 75.3043V82.8357H130.289V70.2217H132.784V71.2151C133.708 70.2756 134.84 69.8059 136.18 69.8059C136.304 69.8059 136.45 69.8136 136.619 69.829C136.789 69.8444 136.981 69.8675 137.197 69.8983V72.3009ZM150.491 82.8357H147.973V75.3043C147.973 74.488 147.688 73.7795 147.118 73.1788C146.517 72.609 145.809 72.324 144.993 72.324C144.145 72.324 143.437 72.609 142.867 73.1788C142.282 73.7641 141.989 74.4726 141.989 75.3043V82.8357H139.494V70.2217H141.989V71.2151C142.913 70.2756 144.045 69.8059 145.385 69.8059C146.864 69.8059 148.088 70.3757 149.059 71.5154C150.013 72.5628 150.491 73.8257 150.491 75.3043V82.8357Z" fill="#2EAF7D"/>
<path d="M112.704 82.9998C111.349 82.9998 110.298 82.6572 109.551 81.9718C108.811 81.2787 108.442 80.1813 108.442 78.6797V70.2126L108.401 66.3228L110.854 66.3375L110.856 78.2869C110.856 79.2803 111.056 79.9773 111.457 80.3777C111.857 80.7705 112.465 80.9668 113.282 80.9668C113.513 80.9668 113.744 80.9514 113.975 80.9206C114.206 80.8898 114.464 80.8436 114.749 80.782V82.7688C114.433 82.8381 114.098 82.892 113.744 82.9305C113.397 82.9767 113.051 82.9998 112.704 82.9998ZM106.178 72.1648V70.2126H114.599V72.1648H106.178Z" fill="#2EAF7D"/>
<path d="M103.826 76.2416C103.826 78.0744 103.163 79.6453 101.839 80.9545C100.514 82.279 98.9356 82.9413 97.1028 82.9413C95.27 82.9413 93.6991 82.279 92.3899 80.9545C91.0654 79.6453 90.4031 78.0744 90.4031 76.2416V65.8917H92.8982V76.2416C92.8982 77.4121 93.3063 78.4055 94.1226 79.2218C94.9389 80.0381 95.9323 80.4462 97.1028 80.4462C98.2734 80.4462 99.2668 80.0381 100.083 79.2218C100.899 78.4055 101.308 77.4121 101.308 76.2416V65.8917H103.826V76.2416Z" fill="#2EAF7D"/>
<defs>
<filter id="filter0_d_729_621" x="36.3983" y="18.5645" width="40.0101" height="40.0106" filterUnits="userSpaceOnUse" color-interpolation-filters="sRGB">
<feFlood flood-opacity="0" result="BackgroundImageFix"/>
<feColorMatrix in="SourceAlpha" type="matrix" values="0 0 0 0 0 0 0 0 0 0 0 0 0 0 0 0 0 0 127 0" result="hardAlpha"/>
<feOffset dy="0.409353"/>
<feGaussianBlur stdDeviation="0.204677"/>
<feComposite in2="hardAlpha" operator="out"/>
<feColorMatrix type="matrix" values="0 0 0 0 0 0 0 0 0 0 0 0 0 0 0 0 0 0 0.25 0"/>
<feBlend mode="normal" in2="BackgroundImageFix" result="effect1_dropShadow_729_621"/>
<feBlend mode="normal" in="SourceGraphic" in2="effect1_dropShadow_729_621" result="shape"/>
</filter>
<filter id="filter1_d_729_621" x="75.6151" y="18.5645" width="40.0101" height="40.0106" filterUnits="userSpaceOnUse" color-interpolation-filters="sRGB">
<feFlood flood-opacity="0" result="BackgroundImageFix"/>
<feColorMatrix in="SourceAlpha" type="matrix" values="0 0 0 0 0 0 0 0 0 0 0 0 0 0 0 0 0 0 127 0" result="hardAlpha"/>
<feOffset dy="0.409353"/>
<feGaussianBlur stdDeviation="0.204677"/>
<feComposite in2="hardAlpha" operator="out"/>
<feColorMatrix type="matrix" values="0 0 0 0 0 0 0 0 0 0 0 0 0 0 0 0 0 0 0.25 0"/>
<feBlend mode="normal" in2="BackgroundImageFix" result="effect1_dropShadow_729_621"/>
<feBlend mode="normal" in="SourceGraphic" in2="effect1_dropShadow_729_621" result="shape"/>
</filter>
<filter id="filter2_d_729_621" x="36.3983" y="0" width="40.0101" height="40.0106" filterUnits="userSpaceOnUse" color-interpolation-filters="sRGB">
<feFlood flood-opacity="0" result="BackgroundImageFix"/>
<feColorMatrix in="SourceAlpha" type="matrix" values="0 0 0 0 0 0 0 0 0 0 0 0 0 0 0 0 0 0 127 0" result="hardAlpha"/>
<feOffset dy="0.409353"/>
<feGaussianBlur stdDeviation="0.204677"/>
<feComposite in2="hardAlpha" operator="out"/>
<feColorMatrix type="matrix" values="0 0 0 0 0 0 0 0 0 0 0 0 0 0 0 0 0 0 0.25 0"/>
<feBlend mode="normal" in2="BackgroundImageFix" result="effect1_dropShadow_729_621"/>
<feBlend mode="normal" in="SourceGraphic" in2="effect1_dropShadow_729_621" result="shape"/>
</filter>
<filter id="filter3_d_729_621" x="75.6151" y="0" width="40.0101" height="40.0106" filterUnits="userSpaceOnUse" color-interpolation-filters="sRGB">
<feFlood flood-opacity="0" result="BackgroundImageFix"/>
<feColorMatrix in="SourceAlpha" type="matrix" values="0 0 0 0 0 0 0 0 0 0 0 0 0 0 0 0 0 0 127 0" result="hardAlpha"/>
<feOffset dy="0.409353"/>
<feGaussianBlur stdDeviation="0.204677"/>
<feComposite in2="hardAlpha" operator="out"/>
<feColorMatrix type="matrix" values="0 0 0 0 0 0 0 0 0 0 0 0 0 0 0 0 0 0 0.25 0"/>
<feBlend mode="normal" in2="BackgroundImageFix" result="effect1_dropShadow_729_621"/>
<feBlend mode="normal" in="SourceGraphic" in2="effect1_dropShadow_729_621" result="shape"/>
</filter>
</defs>
</svg>
