<svg width="148" height="85" viewBox="0 0 148 85" fill="none" xmlns="http://www.w3.org/2000/svg">
<g filter="url(#filter0_d_541_717)">
<g filter="url(#filter1_d_541_717)">
<path d="M62.7585 44.8701C59.2299 48.3987 55.0409 51.1977 50.4305 53.1074C45.8202 55.0171 40.8789 56 35.8887 56L73.8884 18C73.8884 22.9902 72.9055 27.9316 70.9958 32.542C69.0861 37.1523 66.2871 41.3414 62.7585 44.8701Z" fill="#858585"/>
<path d="M59.3637 20.8903C63.9687 18.9828 68.9043 18.0011 73.8887 18.0011L35.933 55.957C35.933 50.9726 36.9148 46.0369 38.8222 41.4319C40.7297 36.8269 43.5255 32.6427 47.05 29.1181C50.5745 25.5936 54.7587 22.7978 59.3637 20.8903Z" fill="#858585"/>
</g>
<g filter="url(#filter2_d_541_717)">
<path d="M85.0413 44.8701C88.5699 48.3987 92.7589 51.1977 97.3693 53.1074C101.98 55.0171 106.921 56 111.911 56L73.9114 18C73.9114 22.9902 74.8943 27.9316 76.804 32.542C78.7137 37.1523 81.5127 41.3414 85.0413 44.8701Z" fill="#858585"/>
<path d="M88.4361 20.8903C83.8311 18.9828 78.8955 18.0011 73.9111 18.0011L111.867 55.957C111.867 50.9726 110.885 46.0369 108.978 41.4319C107.07 36.8269 104.274 32.6427 100.75 29.1181C97.2253 25.5936 93.0411 22.7978 88.4361 20.8903Z" fill="#858585"/>
</g>
<g filter="url(#filter3_d_541_717)">
<path d="M62.7585 11.1299C59.2299 7.60132 55.0409 4.80226 50.4305 2.89258C45.8202 0.982898 40.8789 -2.18032e-07 35.8887 0L73.8884 38C73.8884 33.0098 72.9055 28.0684 70.9958 23.458C69.0861 18.8477 66.2871 14.6586 62.7585 11.1299Z" fill="#2EAF7D"/>
<path d="M59.3637 35.1097C63.9687 37.0172 68.9043 37.9989 73.8887 37.9989L35.933 0.0429704C35.933 5.02742 36.9148 9.96305 38.8222 14.5681C40.7297 19.1731 43.5255 23.3573 47.05 26.8819C50.5745 30.4064 54.7587 33.2022 59.3637 35.1097Z" fill="#2EAF7D"/>
</g>
<g filter="url(#filter4_d_541_717)">
<path d="M85.0413 11.1299C88.5699 7.60132 92.7589 4.80226 97.3693 2.89258C101.98 0.982898 106.921 -2.18032e-07 111.911 0L73.9114 38C73.9114 33.0098 74.8943 28.0684 76.804 23.458C78.7137 18.8477 81.5127 14.6586 85.0413 11.1299Z" fill="#2EAF7D"/>
<path d="M88.4361 35.1097C83.8311 37.0172 78.8955 37.9989 73.9111 37.9989L111.867 0.0429704C111.867 5.02742 110.885 9.96305 108.978 14.5681C107.07 19.1731 104.274 23.3573 100.75 26.8819C97.2253 30.4064 93.0411 33.2022 88.4361 35.1097Z" fill="#2EAF7D"/>
</g>
<path d="M12.5664 78.1375L12.6336 78.4511C12.0213 79.2575 11.2597 79.8922 10.3488 80.3551C9.43787 80.8031 8.47467 81.0271 7.4592 81.0271C5.68213 81.0271 4.15893 80.385 2.8896 79.1007C1.60533 77.8314 0.9632 76.3082 0.9632 74.5311C0.9632 72.754 1.60533 71.2234 2.8896 69.9391C4.15893 68.6548 5.68213 68.0127 7.4592 68.0127C8.47467 68.0127 9.44533 68.2591 10.3712 68.7519C11.312 69.2298 12.1109 69.9018 12.768 70.7679L10.7296 72.0895C9.81867 70.9994 8.72853 70.4543 7.4592 70.4543C6.32427 70.4543 5.36107 70.85 4.5696 71.6415C3.77813 72.433 3.3824 73.3962 3.3824 74.5311C3.3824 75.666 3.77813 76.6292 4.5696 77.4207C5.36107 78.2122 6.32427 78.6079 7.4592 78.6079C8.7136 78.6079 9.80373 78.0554 10.7296 76.9503L12.5664 78.1375ZM27.912 80.6463H25.4704V78.9663C24.3056 80.3402 22.8197 81.0271 21.0128 81.0271C19.2506 81.0271 17.7872 80.37 16.6224 79.0559C15.4725 77.8015 14.8976 76.2932 14.8976 74.5311C14.8976 72.754 15.48 71.2383 16.6448 69.9839C17.2122 69.3119 17.8618 68.8191 18.5936 68.5055C19.3402 68.177 20.1466 68.0127 21.0128 68.0127C22.7898 68.0127 24.2757 68.6996 25.4704 70.0735V68.4159H27.912V80.6463ZM25.4704 74.5311C25.4704 73.3962 25.0746 72.433 24.2832 71.6415C23.4917 70.85 22.5285 70.4543 21.3936 70.4543C20.2586 70.4543 19.2954 70.85 18.504 71.6415C17.7125 72.433 17.3168 73.3962 17.3168 74.5311C17.3168 75.666 17.7125 76.6292 18.504 77.4207C19.2954 78.2122 20.2586 78.6079 21.3936 78.6079C22.5285 78.6079 23.4917 78.2122 24.2832 77.4207C25.0746 76.6292 25.4704 75.666 25.4704 74.5311ZM37.5317 70.4319L37.2181 70.6335C36.8597 70.514 36.5088 70.4543 36.1653 70.4543C35.344 70.4543 34.6571 70.7306 34.1045 71.2831C33.5371 71.8506 33.2533 72.5375 33.2533 73.3439V80.6463H30.8341V68.4159H33.2533V69.3791C34.1493 68.4682 35.2469 68.0127 36.5461 68.0127C36.6656 68.0127 36.8075 68.0202 36.9717 68.0351C37.136 68.05 37.3227 68.0724 37.5317 68.1023V70.4319ZM52.7735 74.5311C52.7735 76.2634 52.1986 77.7716 51.0487 79.0559C49.869 80.37 48.4055 81.0271 46.6583 81.0271C45.7325 81.0271 44.9037 80.8554 44.1719 80.5119C43.4402 80.1684 42.7757 79.6532 42.1783 78.9663V80.6463H39.7591V64.4959H42.1783V70.0735C42.7757 69.4015 43.4402 68.8938 44.1719 68.5503C44.9037 68.1919 45.7325 68.0127 46.6583 68.0127C48.3906 68.0127 49.8466 68.6698 51.0263 69.9839C52.1911 71.2682 52.7735 72.7839 52.7735 74.5311ZM50.3319 74.5311C50.3319 73.3962 49.9362 72.433 49.1447 71.6415C48.3533 70.85 47.3901 70.4543 46.2551 70.4543C45.1202 70.4543 44.157 70.85 43.3655 71.6415C42.5741 72.433 42.1783 73.3962 42.1783 74.5311C42.1783 75.666 42.5741 76.6292 43.3655 77.4207C44.157 78.2122 45.1202 78.6079 46.2551 78.6079C47.3901 78.6079 48.3533 78.2122 49.1447 77.4207C49.9362 76.6292 50.3319 75.666 50.3319 74.5311ZM67.7245 74.5311C67.7245 76.3082 67.0823 77.8314 65.7981 79.1007C64.5138 80.385 62.9831 81.0271 61.2061 81.0271C59.429 81.0271 57.9058 80.385 56.6365 79.1007C55.3522 77.8314 54.7101 76.3082 54.7101 74.5311C54.7101 72.754 55.3522 71.2234 56.6365 69.9391C57.9058 68.6548 59.429 68.0127 61.2061 68.0127C62.9831 68.0127 64.5138 68.6548 65.7981 69.9391C67.0823 71.2234 67.7245 72.754 67.7245 74.5311ZM65.2829 74.5311C65.2829 73.3962 64.8871 72.433 64.0957 71.6415C63.3042 70.85 62.341 70.4543 61.2061 70.4543C60.0711 70.4543 59.1079 70.85 58.3165 71.6415C57.525 72.433 57.1293 73.3962 57.1293 74.5311C57.1293 75.666 57.525 76.6292 58.3165 77.4207C59.1079 78.2122 60.0711 78.6079 61.2061 78.6079C62.341 78.6079 63.3042 78.2122 64.0957 77.4207C64.8871 76.6292 65.2829 75.666 65.2829 74.5311ZM80.8059 80.6463H78.3643V73.3439C78.3643 72.5524 78.088 71.8655 77.5355 71.2831C76.9531 70.7306 76.2662 70.4543 75.4747 70.4543C74.6534 70.4543 73.9664 70.7306 73.4139 71.2831C72.8464 71.8506 72.5627 72.5375 72.5627 73.3439V80.6463H70.1435V68.4159H72.5627V69.3791C73.4587 68.4682 74.5563 68.0127 75.8555 68.0127C77.2891 68.0127 78.4763 68.5652 79.4171 69.6703C80.343 70.6858 80.8059 71.9103 80.8059 73.3439V80.6463Z" fill="#858585"/>
<path d="M123.423 80.0462H120.981V79.083C120.055 79.979 118.958 80.427 117.688 80.427C116.27 80.427 115.083 79.8819 114.127 78.7918C113.216 77.7465 112.76 76.5145 112.76 75.0958V67.8158H115.18V75.0958C115.18 75.499 115.254 75.8723 115.404 76.2158C115.553 76.5593 115.762 76.8729 116.031 77.1566C116.315 77.4254 116.628 77.6345 116.972 77.7838C117.315 77.9331 117.688 78.0078 118.092 78.0078C118.495 78.0078 118.868 77.9331 119.212 77.7838C119.555 77.6345 119.869 77.4254 120.152 77.1566C120.705 76.5742 120.981 75.8873 120.981 75.0958V67.8158H123.423V80.0462ZM133.025 69.8318L132.712 70.0334C132.353 69.9139 132.002 69.8542 131.659 69.8542C130.838 69.8542 130.151 70.1305 129.598 70.683C129.031 71.2505 128.747 71.9374 128.747 72.7438V80.0462H126.328V67.8158H128.747V68.779C129.643 67.8681 130.74 67.4126 132.04 67.4126C132.159 67.4126 132.301 67.4201 132.465 67.435C132.63 67.4499 132.816 67.4723 133.025 67.5022V69.8318ZM145.915 80.0462H143.473V72.7438C143.473 71.9523 143.197 71.2654 142.645 70.683C142.062 70.1305 141.375 69.8542 140.584 69.8542C139.763 69.8542 139.076 70.1305 138.523 70.683C137.956 71.2505 137.672 71.9374 137.672 72.7438V80.0462H135.253V67.8158H137.672V68.779C138.568 67.8681 139.665 67.4126 140.965 67.4126C142.398 67.4126 143.585 67.9651 144.526 69.0702C145.452 70.0857 145.915 71.3102 145.915 72.7438V80.0462Z" fill="#2EAF7D"/>
<path d="M109.277 80.4761C107.963 80.4761 106.944 80.1439 106.22 79.4793C105.503 78.8073 105.144 77.7433 105.144 76.2873V68.0777L105.105 64.3062L107.483 64.3205L107.485 75.9065C107.485 76.8697 107.679 77.5455 108.068 77.9337C108.456 78.3145 109.046 78.5049 109.837 78.5049C110.061 78.5049 110.285 78.49 110.509 78.4601C110.733 78.4303 110.983 78.3855 111.26 78.3257V80.2521C110.953 80.3193 110.629 80.3716 110.285 80.4089C109.949 80.4537 109.613 80.4761 109.277 80.4761ZM102.949 69.9705V68.0777H111.114V69.9705H102.949Z" fill="#2EAF7D"/>
<path d="M100.669 74.5311C100.669 76.3082 100.027 77.8314 98.7428 79.1007C97.4585 80.385 95.9279 81.0271 94.1508 81.0271C92.3737 81.0271 90.8505 80.385 89.5812 79.1007C88.2969 77.8314 87.6548 76.3082 87.6548 74.5311V64.4959H90.074V74.5311C90.074 75.666 90.4697 76.6292 91.2612 77.4207C92.0527 78.2122 93.0159 78.6079 94.1508 78.6079C95.2857 78.6079 96.2489 78.2122 97.0404 77.4207C97.8319 76.6292 98.2276 75.666 98.2276 74.5311V64.4959H100.669V74.5311Z" fill="#2EAF7D"/>
</g>
<defs>
<filter id="filter0_d_541_717" x="-0.8" y="0" width="149.4" height="86.3998" filterUnits="userSpaceOnUse" color-interpolation-filters="sRGB">
<feFlood flood-opacity="0" result="BackgroundImageFix"/>
<feColorMatrix in="SourceAlpha" type="matrix" values="0 0 0 0 0 0 0 0 0 0 0 0 0 0 0 0 0 0 127 0" result="hardAlpha"/>
<feOffset dy="0.8"/>
<feGaussianBlur stdDeviation="0.4"/>
<feComposite in2="hardAlpha" operator="out"/>
<feColorMatrix type="matrix" values="0 0 0 0 0 0 0 0 0 0 0 0 0 0 0 0 0 0 0.25 0"/>
<feBlend mode="normal" in2="BackgroundImageFix" result="effect1_dropShadow_541_717"/>
<feBlend mode="normal" in="SourceGraphic" in2="effect1_dropShadow_541_717" result="shape"/>
</filter>
<filter id="filter1_d_541_717" x="35.4918" y="18" width="38.7938" height="38.7938" filterUnits="userSpaceOnUse" color-interpolation-filters="sRGB">
<feFlood flood-opacity="0" result="BackgroundImageFix"/>
<feColorMatrix in="SourceAlpha" type="matrix" values="0 0 0 0 0 0 0 0 0 0 0 0 0 0 0 0 0 0 127 0" result="hardAlpha"/>
<feOffset dy="0.396906"/>
<feGaussianBlur stdDeviation="0.198453"/>
<feComposite in2="hardAlpha" operator="out"/>
<feColorMatrix type="matrix" values="0 0 0 0 0 0 0 0 0 0 0 0 0 0 0 0 0 0 0.25 0"/>
<feBlend mode="normal" in2="BackgroundImageFix" result="effect1_dropShadow_541_717"/>
<feBlend mode="normal" in="SourceGraphic" in2="effect1_dropShadow_541_717" result="shape"/>
</filter>
<filter id="filter2_d_541_717" x="73.5142" y="18" width="38.7938" height="38.7938" filterUnits="userSpaceOnUse" color-interpolation-filters="sRGB">
<feFlood flood-opacity="0" result="BackgroundImageFix"/>
<feColorMatrix in="SourceAlpha" type="matrix" values="0 0 0 0 0 0 0 0 0 0 0 0 0 0 0 0 0 0 127 0" result="hardAlpha"/>
<feOffset dy="0.396906"/>
<feGaussianBlur stdDeviation="0.198453"/>
<feComposite in2="hardAlpha" operator="out"/>
<feColorMatrix type="matrix" values="0 0 0 0 0 0 0 0 0 0 0 0 0 0 0 0 0 0 0.25 0"/>
<feBlend mode="normal" in2="BackgroundImageFix" result="effect1_dropShadow_541_717"/>
<feBlend mode="normal" in="SourceGraphic" in2="effect1_dropShadow_541_717" result="shape"/>
</filter>
<filter id="filter3_d_541_717" x="35.4918" y="0" width="38.7938" height="38.7938" filterUnits="userSpaceOnUse" color-interpolation-filters="sRGB">
<feFlood flood-opacity="0" result="BackgroundImageFix"/>
<feColorMatrix in="SourceAlpha" type="matrix" values="0 0 0 0 0 0 0 0 0 0 0 0 0 0 0 0 0 0 127 0" result="hardAlpha"/>
<feOffset dy="0.396906"/>
<feGaussianBlur stdDeviation="0.198453"/>
<feComposite in2="hardAlpha" operator="out"/>
<feColorMatrix type="matrix" values="0 0 0 0 0 0 0 0 0 0 0 0 0 0 0 0 0 0 0.25 0"/>
<feBlend mode="normal" in2="BackgroundImageFix" result="effect1_dropShadow_541_717"/>
<feBlend mode="normal" in="SourceGraphic" in2="effect1_dropShadow_541_717" result="shape"/>
</filter>
<filter id="filter4_d_541_717" x="73.5142" y="0" width="38.7938" height="38.7938" filterUnits="userSpaceOnUse" color-interpolation-filters="sRGB">
<feFlood flood-opacity="0" result="BackgroundImageFix"/>
<feColorMatrix in="SourceAlpha" type="matrix" values="0 0 0 0 0 0 0 0 0 0 0 0 0 0 0 0 0 0 127 0" result="hardAlpha"/>
<feOffset dy="0.396906"/>
<feGaussianBlur stdDeviation="0.198453"/>
<feComposite in2="hardAlpha" operator="out"/>
<feColorMatrix type="matrix" values="0 0 0 0 0 0 0 0 0 0 0 0 0 0 0 0 0 0 0.25 0"/>
<feBlend mode="normal" in2="BackgroundImageFix" result="effect1_dropShadow_541_717"/>
<feBlend mode="normal" in="SourceGraphic" in2="effect1_dropShadow_541_717" result="shape"/>
</filter>
</defs>
</svg>
