<svg width="24" height="24" viewBox="0 0 24 24" fill="none" xmlns="http://www.w3.org/2000/svg">
<g id="Frame 48096236">
<path id="Vector" fill-rule="evenodd" clip-rule="evenodd" d="M0 10.6667C0 5.63867 -1.58946e-07 3.124 1.56267 1.56267C3.124 -1.58946e-07 5.63867 0 10.6667 0H13.3333C18.3613 0 20.876 -1.58946e-07 22.4373 1.56267C24 3.124 24 5.63867 24 10.6667V13.3333C24 18.3613 24 20.876 22.4373 22.4373C20.876 24 18.3613 24 13.3333 24H10.6667C5.63867 24 3.124 24 1.56267 22.4373C-1.58946e-07 20.876 0 18.3613 0 13.3333V10.6667ZM20 6C20 6.53043 19.7893 7.03914 19.4142 7.41421C19.0391 7.78929 18.5304 8 18 8C17.4696 8 16.9609 7.78929 16.5858 7.41421C16.2107 7.03914 16 6.53043 16 6C16 5.46957 16.2107 4.96086 16.5858 4.58579C16.9609 4.21071 17.4696 4 18 4C18.5304 4 19.0391 4.21071 19.4142 4.58579C19.7893 4.96086 20 5.46957 20 6ZM14.6667 13.3333C14.6667 14.0406 14.3857 14.7189 13.8856 15.219C13.3855 15.719 12.7072 16 12 16C11.2928 16 10.6145 15.719 10.1144 15.219C9.61429 14.7189 9.33333 14.0406 9.33333 13.3333C9.33333 12.6261 9.61429 11.9478 10.1144 11.4477C10.6145 10.9476 11.2928 10.6667 12 10.6667C12.7072 10.6667 13.3855 10.9476 13.8856 11.4477C14.3857 11.9478 14.6667 12.6261 14.6667 13.3333ZM17.3333 13.3333C17.3333 14.7478 16.7714 16.1044 15.7712 17.1046C14.771 18.1048 13.4145 18.6667 12 18.6667C10.5855 18.6667 9.22896 18.1048 8.22876 17.1046C7.22857 16.1044 6.66667 14.7478 6.66667 13.3333C6.66667 11.9188 7.22857 10.5623 8.22876 9.5621C9.22896 8.5619 10.5855 8 12 8C13.4145 8 14.771 8.5619 15.7712 9.5621C16.7714 10.5623 17.3333 11.9188 17.3333 13.3333Z" fill="#FBFCF8"/>
</g>
</svg>
