<svg width="210" height="42" viewBox="0 0 210 42" fill="none" xmlns="http://www.w3.org/2000/svg">
<g filter="url(#filter0_d_557_137)">
<path d="M20.3463 33.1465C17.8057 35.6871 14.7896 37.7024 11.4701 39.0774C8.15069 40.4524 4.59294 41.16 0.999999 41.16L28.3598 13.8001C28.3598 17.393 27.6521 20.9508 26.2771 24.2703C24.9022 27.5897 22.8869 30.6059 20.3463 33.1465Z" fill="#858585"/>
<path d="M17.9014 15.881C21.217 14.5076 24.7706 13.8007 28.3594 13.8007L1.03132 41.129C1.03132 37.5402 1.73818 33.9866 3.11154 30.6709C4.4849 27.3553 6.49788 24.3427 9.03552 21.805C11.5732 19.2673 14.5858 17.2544 17.9014 15.881Z" fill="#858585"/>
</g>
<g filter="url(#filter1_d_557_137)">
<path d="M36.391 33.1465C38.9316 35.6871 41.9477 37.7024 45.2672 39.0774C48.5866 40.4524 52.1444 41.16 55.7373 41.16L28.3775 13.8001C28.3775 17.393 29.0852 20.9508 30.4602 24.2703C31.8351 27.5897 33.8504 30.6059 36.391 33.1465Z" fill="#858585"/>
<path d="M38.8359 15.881C35.5203 14.5076 31.9667 13.8007 28.3779 13.8007L55.706 41.129C55.706 37.5402 54.9991 33.9866 53.6258 30.6709C52.2524 27.3553 50.2394 24.3427 47.7018 21.805C45.1641 19.2673 42.1515 17.2544 38.8359 15.881Z" fill="#858585"/>
</g>
<g filter="url(#filter2_d_557_137)">
<path d="M20.3463 8.85363C17.8057 6.31302 14.7896 4.2977 11.4701 2.92273C8.15069 1.54776 4.59294 0.840072 0.999999 0.840073L28.3598 28.2001C28.3598 24.6071 27.6521 21.0493 26.2771 17.7299C24.9022 14.4104 22.8869 11.3942 20.3463 8.85363Z" fill="#2EAF7D"/>
<path d="M17.9014 26.1191C21.217 27.4925 24.7706 28.1994 28.3594 28.1994L1.03132 0.871095C1.03132 4.4599 1.73818 8.01355 3.11154 11.3292C4.4849 14.6448 6.49788 17.6574 9.03552 20.1951C11.5732 22.7328 14.5858 24.7458 17.9014 26.1191Z" fill="#2EAF7D"/>
</g>
<g filter="url(#filter3_d_557_137)">
<path d="M36.391 8.85363C38.9316 6.31302 41.9477 4.2977 45.2672 2.92273C48.5866 1.54776 52.1444 0.840072 55.7373 0.840073L28.3775 28.2001C28.3775 24.6071 29.0852 21.0493 30.4602 17.7299C31.8351 14.4104 33.8504 11.3942 36.391 8.85363Z" fill="#2EAF7D"/>
<path d="M38.8359 26.1191C35.5203 27.4925 31.9667 28.1994 28.3779 28.1994L55.706 0.871095C55.706 4.4599 54.9991 8.01355 53.6258 11.3292C52.2524 14.6448 50.2394 17.6574 47.7018 20.1951C45.1641 22.7328 42.1515 24.7458 38.8359 26.1191Z" fill="#2EAF7D"/>
</g>
<path d="M74.7036 28.3376L74.7708 28.6512C74.1585 29.4576 73.3969 30.0922 72.486 30.5552C71.5751 31.0032 70.6119 31.2272 69.5964 31.2272C67.8193 31.2272 66.2961 30.585 65.0268 29.3008C63.7425 28.0314 63.1004 26.5082 63.1004 24.7312C63.1004 22.9541 63.7425 21.4234 65.0268 20.1392C66.2961 18.8549 67.8193 18.2128 69.5964 18.2128C70.6119 18.2128 71.5825 18.4592 72.5084 18.952C73.4492 19.4298 74.2481 20.1018 74.9052 20.968L72.8668 22.2896C71.9559 21.1994 70.8657 20.6544 69.5964 20.6544C68.4615 20.6544 67.4983 21.0501 66.7068 21.8416C65.9153 22.633 65.5196 23.5962 65.5196 24.7312C65.5196 25.8661 65.9153 26.8293 66.7068 27.6208C67.4983 28.4122 68.4615 28.808 69.5964 28.808C70.8508 28.808 71.9409 28.2554 72.8668 27.1504L74.7036 28.3376ZM90.0492 30.8464H87.6076V29.1664C86.4428 30.5402 84.9569 31.2272 83.15 31.2272C81.3878 31.2272 79.9244 30.5701 78.7596 29.256C77.6097 28.0016 77.0348 26.4933 77.0348 24.7312C77.0348 22.9541 77.6172 21.4384 78.782 20.184C79.3494 19.512 79.999 19.0192 80.7308 18.7056C81.4774 18.377 82.2838 18.2128 83.15 18.2128C84.927 18.2128 86.4129 18.8997 87.6076 20.2736V18.616H90.0492V30.8464ZM87.6076 24.7312C87.6076 23.5962 87.2118 22.633 86.4204 21.8416C85.6289 21.0501 84.6657 20.6544 83.5308 20.6544C82.3958 20.6544 81.4326 21.0501 80.6412 21.8416C79.8497 22.633 79.454 23.5962 79.454 24.7312C79.454 25.8661 79.8497 26.8293 80.6412 27.6208C81.4326 28.4122 82.3958 28.808 83.5308 28.808C84.6657 28.808 85.6289 28.4122 86.4204 27.6208C87.2118 26.8293 87.6076 25.8661 87.6076 24.7312ZM99.6689 20.632L99.3553 20.8336C98.9969 20.7141 98.646 20.6544 98.3025 20.6544C97.4812 20.6544 96.7943 20.9306 96.2417 21.4832C95.6743 22.0506 95.3905 22.7376 95.3905 23.544V30.8464H92.9713V18.616H95.3905V19.5792C96.2865 18.6682 97.3841 18.2128 98.6833 18.2128C98.8028 18.2128 98.9447 18.2202 99.1089 18.2352C99.2732 18.2501 99.4599 18.2725 99.6689 18.3024V20.632ZM114.911 24.7312C114.911 26.4634 114.336 27.9717 113.186 29.256C112.006 30.5701 110.543 31.2272 108.796 31.2272C107.87 31.2272 107.041 31.0554 106.309 30.712C105.577 30.3685 104.913 29.8533 104.316 29.1664V30.8464H101.896V14.696H104.316V20.2736C104.913 19.6016 105.577 19.0938 106.309 18.7504C107.041 18.392 107.87 18.2128 108.796 18.2128C110.528 18.2128 111.984 18.8698 113.164 20.184C114.328 21.4682 114.911 22.984 114.911 24.7312ZM112.469 24.7312C112.469 23.5962 112.073 22.633 111.282 21.8416C110.49 21.0501 109.527 20.6544 108.392 20.6544C107.257 20.6544 106.294 21.0501 105.503 21.8416C104.711 22.633 104.316 23.5962 104.316 24.7312C104.316 25.8661 104.711 26.8293 105.503 27.6208C106.294 28.4122 107.257 28.808 108.392 28.808C109.527 28.808 110.49 28.4122 111.282 27.6208C112.073 26.8293 112.469 25.8661 112.469 24.7312ZM129.862 24.7312C129.862 26.5082 129.22 28.0314 127.935 29.3008C126.651 30.585 125.12 31.2272 123.343 31.2272C121.566 31.2272 120.043 30.585 118.774 29.3008C117.489 28.0314 116.847 26.5082 116.847 24.7312C116.847 22.9541 117.489 21.4234 118.774 20.1392C120.043 18.8549 121.566 18.2128 123.343 18.2128C125.12 18.2128 126.651 18.8549 127.935 20.1392C129.22 21.4234 129.862 22.9541 129.862 24.7312ZM127.42 24.7312C127.42 23.5962 127.024 22.633 126.233 21.8416C125.441 21.0501 124.478 20.6544 123.343 20.6544C122.208 20.6544 121.245 21.0501 120.454 21.8416C119.662 22.633 119.266 23.5962 119.266 24.7312C119.266 25.8661 119.662 26.8293 120.454 27.6208C121.245 28.4122 122.208 28.808 123.343 28.808C124.478 28.808 125.441 28.4122 126.233 27.6208C127.024 26.8293 127.42 25.8661 127.42 24.7312ZM142.943 30.8464H140.502V23.544C140.502 22.7525 140.225 22.0656 139.673 21.4832C139.09 20.9306 138.403 20.6544 137.612 20.6544C136.791 20.6544 136.104 20.9306 135.551 21.4832C134.984 22.0506 134.7 22.7376 134.7 23.544V30.8464H132.281V18.616H134.7V19.5792C135.596 18.6682 136.694 18.2128 137.993 18.2128C139.426 18.2128 140.614 18.7653 141.554 19.8704C142.48 20.8858 142.943 22.1104 142.943 23.544V30.8464Z" fill="#858585"/>
<path d="M185.56 30.2464H183.118V29.2832C182.193 30.1792 181.095 30.6272 179.826 30.6272C178.407 30.6272 177.22 30.0821 176.264 28.992C175.353 27.9467 174.898 26.7147 174.898 25.296V18.016H177.317V25.296C177.317 25.6992 177.392 26.0725 177.541 26.416C177.69 26.7595 177.899 27.0731 178.168 27.3568C178.452 27.6256 178.765 27.8347 179.109 27.984C179.452 28.1333 179.826 28.208 180.229 28.208C180.632 28.208 181.005 28.1333 181.349 27.984C181.692 27.8347 182.006 27.6256 182.29 27.3568C182.842 26.7744 183.118 26.0875 183.118 25.296V18.016H185.56V30.2464ZM195.162 20.032L194.849 20.2336C194.49 20.1141 194.14 20.0544 193.796 20.0544C192.975 20.0544 192.288 20.3307 191.735 20.8832C191.168 21.4507 190.884 22.1376 190.884 22.944V30.2464H188.465V18.016H190.884V18.9792C191.78 18.0683 192.878 17.6128 194.177 17.6128C194.296 17.6128 194.438 17.6203 194.602 17.6352C194.767 17.6501 194.953 17.6725 195.162 17.7024V20.032ZM208.052 30.2464H205.611V22.944C205.611 22.1525 205.334 21.4656 204.782 20.8832C204.199 20.3307 203.513 20.0544 202.721 20.0544C201.9 20.0544 201.213 20.3307 200.66 20.8832C200.093 21.4507 199.809 22.1376 199.809 22.944V30.2464H197.39V18.016H199.809V18.9792C200.705 18.0683 201.803 17.6128 203.102 17.6128C204.535 17.6128 205.723 18.1653 206.663 19.2704C207.589 20.2859 208.052 21.5104 208.052 22.944V30.2464Z" fill="#2EAF7D"/>
<path d="M171.414 30.676C170.1 30.676 169.081 30.3437 168.357 29.6792C167.64 29.0072 167.282 27.9432 167.282 26.4872V18.2776L167.242 14.506L169.62 14.5203L169.622 26.1064C169.622 27.0696 169.817 27.7453 170.205 28.1336C170.593 28.5144 171.183 28.7048 171.974 28.7048C172.198 28.7048 172.422 28.6898 172.646 28.66C172.87 28.6301 173.121 28.5853 173.397 28.5256V30.452C173.091 30.5192 172.766 30.5714 172.422 30.6088C172.086 30.6536 171.75 30.676 171.414 30.676ZM165.086 20.1704V18.2776H173.251V20.1704H165.086Z" fill="#2EAF7D"/>
<path d="M162.806 24.7312C162.806 26.5082 162.164 28.0314 160.88 29.3008C159.595 30.585 158.065 31.2272 156.288 31.2272C154.51 31.2272 152.987 30.585 151.718 29.3008C150.434 28.0314 149.792 26.5082 149.792 24.7312V14.696H152.211V24.7312C152.211 25.8661 152.606 26.8293 153.398 27.6208C154.189 28.4122 155.153 28.808 156.288 28.808C157.422 28.808 158.386 28.4122 159.177 27.6208C159.969 26.8293 160.364 25.8661 160.364 24.7312V14.696H162.806V24.7312Z" fill="#2EAF7D"/>
<defs>
<filter id="filter0_d_557_137" x="0.714228" y="13.8" width="27.9314" height="27.9315" filterUnits="userSpaceOnUse" color-interpolation-filters="sRGB">
<feFlood flood-opacity="0" result="BackgroundImageFix"/>
<feColorMatrix in="SourceAlpha" type="matrix" values="0 0 0 0 0 0 0 0 0 0 0 0 0 0 0 0 0 0 127 0" result="hardAlpha"/>
<feOffset dy="0.285772"/>
<feGaussianBlur stdDeviation="0.142886"/>
<feComposite in2="hardAlpha" operator="out"/>
<feColorMatrix type="matrix" values="0 0 0 0 0 0 0 0 0 0 0 0 0 0 0 0 0 0 0.25 0"/>
<feBlend mode="normal" in2="BackgroundImageFix" result="effect1_dropShadow_557_137"/>
<feBlend mode="normal" in="SourceGraphic" in2="effect1_dropShadow_557_137" result="shape"/>
</filter>
<filter id="filter1_d_557_137" x="28.0917" y="13.8" width="27.9314" height="27.9315" filterUnits="userSpaceOnUse" color-interpolation-filters="sRGB">
<feFlood flood-opacity="0" result="BackgroundImageFix"/>
<feColorMatrix in="SourceAlpha" type="matrix" values="0 0 0 0 0 0 0 0 0 0 0 0 0 0 0 0 0 0 127 0" result="hardAlpha"/>
<feOffset dy="0.285772"/>
<feGaussianBlur stdDeviation="0.142886"/>
<feComposite in2="hardAlpha" operator="out"/>
<feColorMatrix type="matrix" values="0 0 0 0 0 0 0 0 0 0 0 0 0 0 0 0 0 0 0.25 0"/>
<feBlend mode="normal" in2="BackgroundImageFix" result="effect1_dropShadow_557_137"/>
<feBlend mode="normal" in="SourceGraphic" in2="effect1_dropShadow_557_137" result="shape"/>
</filter>
<filter id="filter2_d_557_137" x="0.714228" y="0.840088" width="27.9314" height="27.9315" filterUnits="userSpaceOnUse" color-interpolation-filters="sRGB">
<feFlood flood-opacity="0" result="BackgroundImageFix"/>
<feColorMatrix in="SourceAlpha" type="matrix" values="0 0 0 0 0 0 0 0 0 0 0 0 0 0 0 0 0 0 127 0" result="hardAlpha"/>
<feOffset dy="0.285772"/>
<feGaussianBlur stdDeviation="0.142886"/>
<feComposite in2="hardAlpha" operator="out"/>
<feColorMatrix type="matrix" values="0 0 0 0 0 0 0 0 0 0 0 0 0 0 0 0 0 0 0.25 0"/>
<feBlend mode="normal" in2="BackgroundImageFix" result="effect1_dropShadow_557_137"/>
<feBlend mode="normal" in="SourceGraphic" in2="effect1_dropShadow_557_137" result="shape"/>
</filter>
<filter id="filter3_d_557_137" x="28.0917" y="0.840088" width="27.9314" height="27.9315" filterUnits="userSpaceOnUse" color-interpolation-filters="sRGB">
<feFlood flood-opacity="0" result="BackgroundImageFix"/>
<feColorMatrix in="SourceAlpha" type="matrix" values="0 0 0 0 0 0 0 0 0 0 0 0 0 0 0 0 0 0 127 0" result="hardAlpha"/>
<feOffset dy="0.285772"/>
<feGaussianBlur stdDeviation="0.142886"/>
<feComposite in2="hardAlpha" operator="out"/>
<feColorMatrix type="matrix" values="0 0 0 0 0 0 0 0 0 0 0 0 0 0 0 0 0 0 0.25 0"/>
<feBlend mode="normal" in2="BackgroundImageFix" result="effect1_dropShadow_557_137"/>
<feBlend mode="normal" in="SourceGraphic" in2="effect1_dropShadow_557_137" result="shape"/>
</filter>
</defs>
</svg>
