<svg width="211" height="42" viewBox="0 0 211 42" fill="none" xmlns="http://www.w3.org/2000/svg">
<g filter="url(#filter0_d_729_655)">
<path fill-rule="evenodd" clip-rule="evenodd" d="M11.5072 38.9768C14.8385 37.6095 17.8654 35.6054 20.415 33.0789C22.9646 30.5524 24.9871 27.553 26.367 24.252C27.7468 20.951 28.457 17.413 28.457 13.8401L28.4563 13.8408C24.8548 13.8408 21.2887 14.5438 17.9613 15.9095C14.6339 17.2752 11.6106 19.277 9.06392 21.8005C6.51724 24.3241 4.4971 27.32 3.11884 30.6171C1.74063 33.9142 1.03125 37.448 1.03121 41.0168L0.999836 41.0479C4.60557 41.0479 8.17599 40.3441 11.5072 38.9768Z" fill="#858585"/>
</g>
<g filter="url(#filter1_d_729_655)">
<path fill-rule="evenodd" clip-rule="evenodd" d="M45.4244 38.9767C42.0931 37.6093 39.0663 35.6052 36.5166 33.0787C33.967 30.5523 31.9445 27.5529 30.5647 24.2519C29.1848 20.9509 28.4746 17.4129 28.4746 13.8399L28.4753 13.8407C32.0768 13.8407 35.643 14.5436 38.9703 15.9093C42.2977 17.2751 45.321 19.2769 47.8677 21.8004C50.4144 24.324 52.4345 27.3198 53.8128 30.617C55.191 33.9141 55.9004 37.4479 55.9004 41.0166L55.9318 41.0477C52.3261 41.0477 48.7556 40.344 45.4244 38.9767Z" fill="#858585"/>
</g>
<g filter="url(#filter2_d_729_655)">
<path fill-rule="evenodd" clip-rule="evenodd" d="M11.5073 3.02322C14.8385 4.39054 17.8654 6.39465 20.415 8.92113C22.9646 11.4476 24.9871 14.447 26.367 17.748C27.7468 21.049 28.457 24.587 28.457 28.1599L28.4563 28.1592C24.8548 28.1592 21.2887 27.4562 17.9613 26.0905C14.6339 24.7248 11.6106 22.723 9.06392 20.1995C6.51724 17.6759 4.4971 14.68 3.11884 11.3829C1.74062 8.08577 1.03125 4.55198 1.03121 0.983239L0.999836 0.952148C4.60557 0.95215 8.17599 1.6559 11.5073 3.02322Z" fill="#2EAF7D"/>
</g>
<g filter="url(#filter3_d_729_655)">
<path fill-rule="evenodd" clip-rule="evenodd" d="M45.4244 3.02322C42.0931 4.39054 39.0663 6.39465 36.5166 8.92113C33.967 11.4476 31.9445 14.447 30.5647 17.748C29.1848 21.049 28.4746 24.587 28.4746 28.1599L28.4753 28.1592C32.0768 28.1592 35.643 27.4562 38.9703 26.0905C42.2977 24.7248 45.321 22.723 47.8677 20.1995C50.4144 17.6759 52.4345 14.68 53.8128 11.3829C55.191 8.08577 55.9004 4.55198 55.9004 0.983239L55.9318 0.952148C52.3261 0.952148 48.7556 1.6559 45.4244 3.02322Z" fill="#2EAF7D"/>
</g>
<path d="M74.9431 28.0364L75.0105 28.3507C74.3968 29.1591 73.6334 29.7953 72.7202 30.2593C71.8071 30.7084 70.8416 30.9329 69.8237 30.9329C68.0424 30.9329 66.5156 30.2892 65.2432 29.0019C63.9559 27.7295 63.3122 26.2027 63.3122 24.4214C63.3122 22.64 63.9559 21.1057 65.2432 19.8184C66.5156 18.531 68.0424 17.8874 69.8237 17.8874C70.8416 17.8874 71.8146 18.1344 72.7427 18.6283C73.6857 19.1073 74.4866 19.7809 75.1452 20.6492L73.102 21.9739C72.1888 20.8812 71.0961 20.3348 69.8237 20.3348C68.6861 20.3348 67.7206 20.7315 66.9272 21.5248C66.1339 22.3182 65.7372 23.2837 65.7372 24.4214C65.7372 25.559 66.1339 26.5245 66.9272 27.3179C67.7206 28.1112 68.6861 28.5079 69.8237 28.5079C71.0811 28.5079 72.1739 27.9541 73.102 26.8463L74.9431 28.0364ZM90.3254 30.5512H87.878V28.8672C86.7104 30.2443 85.221 30.9329 83.4097 30.9329C81.6434 30.9329 80.1764 30.2743 79.0088 28.957C77.8562 27.6996 77.2799 26.1877 77.2799 24.4214C77.2799 22.64 77.8637 21.1207 79.0313 19.8633C79.6001 19.1897 80.2513 18.6957 80.9847 18.3813C81.7332 18.052 82.5415 17.8874 83.4097 17.8874C85.191 17.8874 86.6805 18.5759 87.878 19.9531V18.2915H90.3254V30.5512ZM87.878 24.4214C87.878 23.2837 87.4813 22.3182 86.688 21.5248C85.8946 20.7315 84.9291 20.3348 83.7914 20.3348C82.6538 20.3348 81.6883 20.7315 80.8949 21.5248C80.1016 22.3182 79.7049 23.2837 79.7049 24.4214C79.7049 25.559 80.1016 26.5245 80.8949 27.3179C81.6883 28.1112 82.6538 28.5079 83.7914 28.5079C84.9291 28.5079 85.8946 28.1112 86.688 27.3179C87.4813 26.5245 87.878 25.559 87.878 24.4214ZM99.9682 20.3124L99.6538 20.5144C99.2946 20.3947 98.9428 20.3348 98.5985 20.3348C97.7752 20.3348 97.0867 20.6117 96.5328 21.1656C95.964 21.7344 95.6796 22.423 95.6796 23.2313V30.5512H93.2546V18.2915H95.6796V19.257C96.5777 18.3439 97.6779 17.8874 98.9802 17.8874C99.1 17.8874 99.2422 17.8948 99.4069 17.9098C99.5715 17.9248 99.7586 17.9472 99.9682 17.9772V20.3124ZM115.246 24.4214C115.246 26.1578 114.67 27.6696 113.518 28.957C112.335 30.2743 110.868 30.9329 109.117 30.9329C108.189 30.9329 107.358 30.7608 106.624 30.4165C105.891 30.0722 105.225 29.5557 104.626 28.8672V30.5512H102.201V14.3621H104.626V19.9531C105.225 19.2795 105.891 18.7705 106.624 18.4262C107.358 18.067 108.189 17.8874 109.117 17.8874C110.853 17.8874 112.313 18.546 113.495 19.8633C114.663 21.1506 115.246 22.67 115.246 24.4214ZM112.799 24.4214C112.799 23.2837 112.402 22.3182 111.609 21.5248C110.816 20.7315 109.85 20.3348 108.712 20.3348C107.575 20.3348 106.609 20.7315 105.816 21.5248C105.023 22.3182 104.626 23.2837 104.626 24.4214C104.626 25.559 105.023 26.5245 105.816 27.3179C106.609 28.1112 107.575 28.5079 108.712 28.5079C109.85 28.5079 110.816 28.1112 111.609 27.3179C112.402 26.5245 112.799 25.559 112.799 24.4214ZM130.233 24.4214C130.233 26.2027 129.59 27.7295 128.302 29.0019C127.015 30.2892 125.481 30.9329 123.699 30.9329C121.918 30.9329 120.391 30.2892 119.119 29.0019C117.831 27.7295 117.188 26.2027 117.188 24.4214C117.188 22.64 117.831 21.1057 119.119 19.8184C120.391 18.531 121.918 17.8874 123.699 17.8874C125.481 17.8874 127.015 18.531 128.302 19.8184C129.59 21.1057 130.233 22.64 130.233 24.4214ZM127.786 24.4214C127.786 23.2837 127.389 22.3182 126.596 21.5248C125.802 20.7315 124.837 20.3348 123.699 20.3348C122.562 20.3348 121.596 20.7315 120.803 21.5248C120.009 22.3182 119.613 23.2837 119.613 24.4214C119.613 25.559 120.009 26.5245 120.803 27.3179C121.596 28.1112 122.562 28.5079 123.699 28.5079C124.837 28.5079 125.802 28.1112 126.596 27.3179C127.389 26.5245 127.786 25.559 127.786 24.4214ZM143.346 30.5512H140.898V23.2313C140.898 22.438 140.622 21.7494 140.068 21.1656C139.484 20.6117 138.795 20.3348 138.002 20.3348C137.179 20.3348 136.49 20.6117 135.936 21.1656C135.367 21.7344 135.083 22.423 135.083 23.2313V30.5512H132.658V18.2915H135.083V19.257C135.981 18.3439 137.081 17.8874 138.384 17.8874C139.821 17.8874 141.011 18.4412 141.954 19.5489C142.882 20.5668 143.346 21.7943 143.346 23.2313V30.5512Z" fill="#858585"/>
<path d="M186.064 29.9424H183.617V28.9769C182.688 29.8751 181.588 30.3241 180.316 30.3241C178.894 30.3241 177.704 29.7778 176.746 28.685C175.833 27.6372 175.376 26.4022 175.376 24.9802V17.6828H177.801V24.9802C177.801 25.3843 177.876 25.7586 178.026 26.1029C178.175 26.4471 178.385 26.7615 178.654 27.0459C178.939 27.3154 179.253 27.5249 179.597 27.6746C179.942 27.8243 180.316 27.8991 180.72 27.8991C181.124 27.8991 181.498 27.8243 181.843 27.6746C182.187 27.5249 182.501 27.3154 182.786 27.0459C183.34 26.4621 183.617 25.7735 183.617 24.9802V17.6828H186.064V29.9424ZM195.689 19.7036L195.375 19.9057C195.016 19.7859 194.664 19.726 194.32 19.726C193.496 19.726 192.808 20.003 192.254 20.5568C191.685 21.1256 191.401 21.8142 191.401 22.6226V29.9424H188.976V17.6828H191.401V18.6483C192.299 17.7352 193.399 17.2786 194.701 17.2786C194.821 17.2786 194.963 17.2861 195.128 17.3011C195.293 17.316 195.48 17.3385 195.689 17.3684V19.7036ZM208.61 29.9424H206.163V22.6226C206.163 21.8292 205.886 21.1406 205.332 20.5568C204.748 20.003 204.059 19.726 203.266 19.726C202.443 19.726 201.754 20.003 201.2 20.5568C200.632 21.1256 200.347 21.8142 200.347 22.6226V29.9424H197.922V17.6828H200.347V18.6483C201.245 17.7352 202.345 17.2786 203.648 17.2786C205.085 17.2786 206.275 17.8325 207.218 18.9402C208.146 19.9581 208.61 21.1855 208.61 22.6226V29.9424Z" fill="#2EAF7D"/>
<path d="M171.884 30.428C170.567 30.428 169.545 30.095 168.819 29.4288C168.101 28.7552 167.741 27.6887 167.741 26.2292V18L167.702 14.2194L170.086 14.2337L170.088 25.8475C170.088 26.813 170.282 27.4903 170.672 27.8795C171.061 28.2612 171.652 28.4521 172.445 28.4521C172.67 28.4521 172.895 28.4371 173.119 28.4072C173.344 28.3773 173.594 28.3323 173.871 28.2725V30.2035C173.564 30.2708 173.239 30.3232 172.895 30.3607C172.558 30.4056 172.221 30.428 171.884 30.428ZM165.541 19.8973V18H173.725V19.8973H165.541Z" fill="#2EAF7D"/>
<path d="M163.256 24.4214C163.256 26.2027 162.612 27.7295 161.325 29.0019C160.038 30.2892 158.503 30.9329 156.722 30.9329C154.941 30.9329 153.414 30.2892 152.142 29.0019C150.854 27.7295 150.211 26.2027 150.211 24.4214V14.3621H152.636V24.4214C152.636 25.559 153.032 26.5245 153.826 27.3179C154.619 28.1112 155.584 28.5079 156.722 28.5079C157.86 28.5079 158.825 28.1112 159.619 27.3179C160.412 26.5245 160.809 25.559 160.809 24.4214V14.3621H163.256V24.4214Z" fill="#2EAF7D"/>
<defs>
<filter id="filter0_d_729_655" x="0.602145" y="13.8401" width="28.2527" height="28.0035" filterUnits="userSpaceOnUse" color-interpolation-filters="sRGB">
<feFlood flood-opacity="0" result="BackgroundImageFix"/>
<feColorMatrix in="SourceAlpha" type="matrix" values="0 0 0 0 0 0 0 0 0 0 0 0 0 0 0 0 0 0 127 0" result="hardAlpha"/>
<feOffset dy="0.397855"/>
<feGaussianBlur stdDeviation="0.198928"/>
<feComposite in2="hardAlpha" operator="out"/>
<feColorMatrix type="matrix" values="0 0 0 0 0 0 0 0 0 0 0 0 0 0 0 0 0 0 0.25 0"/>
<feBlend mode="normal" in2="BackgroundImageFix" result="effect1_dropShadow_729_655"/>
<feBlend mode="normal" in="SourceGraphic" in2="effect1_dropShadow_729_655" result="shape"/>
</filter>
<filter id="filter1_d_729_655" x="28.0768" y="13.84" width="28.2527" height="28.0035" filterUnits="userSpaceOnUse" color-interpolation-filters="sRGB">
<feFlood flood-opacity="0" result="BackgroundImageFix"/>
<feColorMatrix in="SourceAlpha" type="matrix" values="0 0 0 0 0 0 0 0 0 0 0 0 0 0 0 0 0 0 127 0" result="hardAlpha"/>
<feOffset dy="0.397855"/>
<feGaussianBlur stdDeviation="0.198928"/>
<feComposite in2="hardAlpha" operator="out"/>
<feColorMatrix type="matrix" values="0 0 0 0 0 0 0 0 0 0 0 0 0 0 0 0 0 0 0.25 0"/>
<feBlend mode="normal" in2="BackgroundImageFix" result="effect1_dropShadow_729_655"/>
<feBlend mode="normal" in="SourceGraphic" in2="effect1_dropShadow_729_655" result="shape"/>
</filter>
<filter id="filter2_d_729_655" x="0.602145" y="0.952148" width="28.2527" height="28.0035" filterUnits="userSpaceOnUse" color-interpolation-filters="sRGB">
<feFlood flood-opacity="0" result="BackgroundImageFix"/>
<feColorMatrix in="SourceAlpha" type="matrix" values="0 0 0 0 0 0 0 0 0 0 0 0 0 0 0 0 0 0 127 0" result="hardAlpha"/>
<feOffset dy="0.397855"/>
<feGaussianBlur stdDeviation="0.198928"/>
<feComposite in2="hardAlpha" operator="out"/>
<feColorMatrix type="matrix" values="0 0 0 0 0 0 0 0 0 0 0 0 0 0 0 0 0 0 0.25 0"/>
<feBlend mode="normal" in2="BackgroundImageFix" result="effect1_dropShadow_729_655"/>
<feBlend mode="normal" in="SourceGraphic" in2="effect1_dropShadow_729_655" result="shape"/>
</filter>
<filter id="filter3_d_729_655" x="28.0768" y="0.952148" width="28.2527" height="28.0035" filterUnits="userSpaceOnUse" color-interpolation-filters="sRGB">
<feFlood flood-opacity="0" result="BackgroundImageFix"/>
<feColorMatrix in="SourceAlpha" type="matrix" values="0 0 0 0 0 0 0 0 0 0 0 0 0 0 0 0 0 0 127 0" result="hardAlpha"/>
<feOffset dy="0.397855"/>
<feGaussianBlur stdDeviation="0.198928"/>
<feComposite in2="hardAlpha" operator="out"/>
<feColorMatrix type="matrix" values="0 0 0 0 0 0 0 0 0 0 0 0 0 0 0 0 0 0 0.25 0"/>
<feBlend mode="normal" in2="BackgroundImageFix" result="effect1_dropShadow_729_655"/>
<feBlend mode="normal" in="SourceGraphic" in2="effect1_dropShadow_729_655" result="shape"/>
</filter>
</defs>
</svg>
