<svg width="131" height="129" viewBox="0 0 131 129" fill="none" xmlns="http://www.w3.org/2000/svg">
<path d="M128.8 64.3061C128.8 98.9822 100.471 127.112 65.5002 127.112C30.5297 127.112 2.2002 98.9822 2.2002 64.3061C2.2002 29.63 30.5297 1.5 65.5002 1.5C100.471 1.5 128.8 29.63 128.8 64.3061Z" stroke="#AAE0FF" stroke-width="3"/>
<path d="M11.396 98.5108C10.6323 97.1574 9.83567 95.9428 9.07242 94.7938C9.00444 94.6914 8.93672 94.5896 8.86933 94.4883C8.17925 93.4507 7.5227 92.4634 6.9449 91.4651C5.70085 89.3155 4.82788 87.124 4.79786 84.3126L65.1995 84.3126L125.601 84.3126C125.564 87.1293 124.476 89.6102 123.011 92.0558C122.351 93.1576 121.616 94.2487 120.869 95.3596C120.772 95.5039 120.674 95.6484 120.577 95.7934C119.73 97.0534 118.878 98.3424 118.114 99.6963C115.085 105.065 111.914 108.173 106.302 112.293C104.997 113.251 103.744 114.243 102.498 115.228C98.3532 118.507 94.2889 121.723 88.6656 123.433C81.3162 125.667 73.1257 128.069 65.1995 128.069C57.2719 128.069 51.8452 126.456 44.4993 124.223C37.1687 121.994 32.4716 119.591 26.8627 115.473C21.2546 111.357 14.4272 103.883 11.396 98.5108Z" fill="#AAE0FF" stroke="#AAE0FF" stroke-width="0.3"/>
<rect x="51.6266" y="60.8023" width="7.99756" height="25.1854" rx="1.05" fill="#AAE0FF" stroke="#AAE0FF" stroke-width="0.3"/>
<rect x="91.3336" y="19.3141" width="7.99756" height="69.0439" rx="1.05" fill="#AAE0FF" stroke="#AAE0FF" stroke-width="0.3"/>
<rect x="78.0953" y="34.1305" width="7.99756" height="51.8561" rx="1.05" fill="#AAE0FF" stroke="#AAE0FF" stroke-width="0.3"/>
<rect x="64.857" y="50.7242" width="7.99756" height="35.261" rx="1.05" fill="#AAE0FF" stroke="#AAE0FF" stroke-width="0.3"/>
<rect x="38.3883" y="70.0875" width="7.99756" height="19.6537" rx="1.05" fill="#AAE0FF" stroke="#AAE0FF" stroke-width="0.3"/>
<rect x="25.9448" y="45.919" width="3.80936" height="19.6878" rx="1.05" transform="rotate(47.2492 25.9448 45.919)" fill="#AAE0FF" stroke="#AAE0FF" stroke-width="0.3"/>
<path d="M13.1455 60.1567L38.0382 37.5359L43.5699 42.8701L68.8577 21.3359" stroke="#AAE0FF" stroke-width="6.3" stroke-linejoin="round"/>
<path d="M69.1548 31.0156L58.3877 19.6558L72.7109 17.9766L69.1548 31.0156Z" fill="#AAE0FF" stroke="#AAE0FF" stroke-width="3"/>
</svg>
