<svg width="131" height="129" viewBox="0 0 131 129" fill="none" xmlns="http://www.w3.org/2000/svg">
<path d="M128.8 64.3061C128.8 98.9822 100.471 127.112 65.5002 127.112C30.5297 127.112 2.2002 98.9822 2.2002 64.3061C2.2002 29.63 30.5297 1.5 65.5002 1.5C100.471 1.5 128.8 29.63 128.8 64.3061Z" stroke="#AAE0FF" stroke-width="3"/>
<path d="M36.3951 60.5616C58.1343 27.3769 52.2278 21.6816 52.2278 14.0234C62.5534 14.0234 77.0647 50.5471 76.2828 68.8089C80.9769 68.8089 78.4078 42.8889 78.9943 30.518C102.098 51.1362 117.11 111.223 65.4995 111.223C30.5184 111.223 27.8616 73.5881 36.3951 60.5616Z" fill="#AAE0FF" stroke="#AAE0FF" stroke-width="3" stroke-linejoin="round"/>
<path d="M40.7037 75.2734C40.4073 86.7649 46.3934 108.306 72.7085 102.537" stroke="#404040" stroke-width="10.5" stroke-linecap="round" stroke-linejoin="round"/>
</svg>
