<svg width="130" height="129" viewBox="0 0 130 129" fill="none" xmlns="http://www.w3.org/2000/svg">
<path d="M128.3 64.3061C128.3 98.9822 99.9707 127.112 65.0002 127.112C30.0297 127.112 1.7002 98.9822 1.7002 64.3061C1.7002 29.63 30.0297 1.5 65.0002 1.5C99.9707 1.5 128.3 29.63 128.3 64.3061Z" stroke="#AAE0FF" stroke-width="3"/>
<path d="M111.493 66.1719C111.493 91.8531 90.6744 112.672 64.9932 112.672C39.3119 112.672 18.4932 91.8531 18.4932 66.1719C18.4932 40.4906 39.3119 19.6719 64.9932 19.6719C90.6744 19.6719 111.493 40.4906 111.493 66.1719Z" fill="#AAE0FF" stroke="#AAE0FF" stroke-width="3"/>
<path d="M62.6351 84.6524V80.4048C60.6266 80.2402 58.6345 79.8615 56.6589 79.2689C54.7162 78.6432 52.9217 77.8201 51.2754 76.7993L54.6339 70.8231C55.9181 71.6134 57.2351 72.2554 58.5851 72.7493C59.9351 73.2433 61.2851 73.589 62.6351 73.7865V67.3164L59.0297 66.4274C56.626 65.8347 54.815 64.814 53.5967 63.3652C52.3784 61.9164 51.7693 60.0561 51.7693 57.7841C51.7693 54.7878 52.7077 52.417 54.5845 50.6719C56.4943 48.9268 59.1778 47.939 62.6351 47.7085V43.4609H66.4876V47.7579C68.3644 47.9554 70.1754 48.367 71.9205 48.9926C73.6986 49.5853 75.312 50.3591 76.7608 51.314L73.6986 57.2408C71.3278 55.825 68.9242 54.8865 66.4876 54.4256V60.8957L69.9943 61.7353C72.5297 62.3609 74.423 63.3652 75.6742 64.7481C76.9583 66.1311 77.6004 67.8926 77.6004 70.0329C77.6004 72.0085 77.1559 73.7372 76.2669 75.2189C75.4108 76.7006 74.1431 77.8859 72.4638 78.775C70.8175 79.6311 68.8254 80.1579 66.4876 80.3554V84.6524H62.6351ZM62.6351 60.1548V54.228C61.4498 54.3268 60.5114 54.6396 59.8199 55.1664C59.1614 55.6933 58.8321 56.3683 58.8321 57.1914C58.8321 57.9487 59.0791 58.5414 59.573 58.9695C60.0669 59.3975 60.9394 59.7597 62.1906 60.0561L62.6351 60.1548ZM66.4876 73.8359C67.7388 73.7042 68.6772 73.3914 69.3028 72.8975C69.9614 72.4036 70.2906 71.7615 70.2906 70.9713C70.2906 70.214 70.0437 69.6542 69.5498 69.292C69.0888 68.8969 68.1833 68.5018 66.8333 68.1067L66.4876 68.0079V73.8359Z" fill="#2A3636"/>
</svg>
