<svg width="130" height="129" viewBox="0 0 130 129" fill="none" xmlns="http://www.w3.org/2000/svg">
<path d="M128.3 64.3061C128.3 98.9822 99.9707 127.112 65.0002 127.112C30.0297 127.112 1.7002 98.9822 1.7002 64.3061C1.7002 29.63 30.0297 1.5 65.0002 1.5C99.9707 1.5 128.3 29.63 128.3 64.3061Z" stroke="#E5F4FC" stroke-width="3"/>
<path d="M111.7 64C111.7 89.6812 90.8814 110.5 65.2002 110.5C39.519 110.5 18.7002 89.6812 18.7002 64C18.7002 38.3188 39.519 17.5 65.2002 17.5C90.8814 17.5 111.7 38.3188 111.7 64Z" fill="#E5F4FC" stroke="#E5F4FC" stroke-width="3"/>
<path d="M62.8422 82.4805V78.233C60.8336 78.0683 58.8416 77.6897 56.866 77.097C54.9233 76.4714 53.1288 75.6482 51.4824 74.6275L54.841 68.6513C56.1251 69.4415 57.4422 70.0836 58.7922 70.5775C60.1422 71.0714 61.4922 71.4171 62.8422 71.6147V65.1445L59.2367 64.2555C56.833 63.6628 55.0221 62.6421 53.8038 61.1933C52.5855 59.7445 51.9763 57.8842 51.9763 55.6122C51.9763 52.6159 52.9147 50.2452 54.7916 48.5C56.7013 46.7549 59.3849 45.7671 62.8422 45.5366V41.2891H66.6946V45.586C68.5714 45.7836 70.3824 46.1952 72.1275 46.8208C73.9056 47.4135 75.519 48.1872 76.9678 49.1421L73.9056 55.0689C71.5349 53.6531 69.1312 52.7147 66.6946 52.2537V58.7238L70.2013 59.5634C72.7367 60.1891 74.63 61.1933 75.8812 62.5763C77.1653 63.9592 77.8074 65.7208 77.8074 67.861C77.8074 69.8366 77.3629 71.5653 76.4739 73.047C75.6178 74.5287 74.3501 75.7141 72.6708 76.6031C71.0245 77.4592 69.0324 77.986 66.6946 78.1836V82.4805H62.8422ZM62.8422 57.983V52.0561C61.6568 52.1549 60.7184 52.4677 60.0269 52.9945C59.3684 53.5214 59.0391 54.1964 59.0391 55.0195C59.0391 55.7769 59.2861 56.3695 59.78 56.7976C60.2739 57.2256 61.1464 57.5878 62.3977 57.8842L62.8422 57.983ZM66.6946 71.6641C67.9458 71.5324 68.8843 71.2195 69.5099 70.7256C70.1684 70.2317 70.4977 69.5897 70.4977 68.7994C70.4977 68.0421 70.2507 67.4824 69.7568 67.1202C69.2958 66.725 68.3904 66.3299 67.0404 65.9348L66.6946 65.836V71.6641Z" fill="#2A3636"/>
</svg>
