<svg width="108" height="108" viewBox="0 0 108 108" fill="none" xmlns="http://www.w3.org/2000/svg">
<path d="M106.75 53.5884C106.75 82.4851 83.1421 105.927 54 105.927C24.8579 105.927 1.25 82.4851 1.25 53.5884C1.25 24.6917 24.8579 1.25 54 1.25C83.1421 1.25 106.75 24.6917 106.75 53.5884Z" stroke="#C1F6ED" stroke-width="2.5"/>
<path d="M92.7441 55.1462C92.7441 76.5473 75.3952 93.8962 53.9941 93.8962C32.5931 93.8962 15.2441 76.5473 15.2441 55.1462C15.2441 33.7452 32.5931 16.3962 53.9941 16.3962C75.3952 16.3962 92.7441 33.7452 92.7441 55.1462Z" fill="#C1F6ED" stroke="#C1F6ED" stroke-width="2.5"/>
<path d="M52.0299 70.5457V67.0061C50.3562 66.8689 48.6961 66.5533 47.0498 66.0594C45.4309 65.5381 43.9354 64.8521 42.5635 64.0015L45.3623 59.0213C46.4324 59.6798 47.5299 60.2149 48.6549 60.6265C49.7799 61.0381 50.9049 61.3262 52.0299 61.4908V56.0991L49.0254 55.3582C47.0223 54.8643 45.5132 54.0137 44.4979 52.8064C43.4827 51.5991 42.9751 50.0487 42.9751 48.1555C42.9751 45.6585 43.7571 43.6829 45.3211 42.2286C46.9126 40.7744 49.1488 39.9512 52.0299 39.7591V36.2195H55.2403V39.8003C56.8043 39.9649 58.3135 40.3079 59.7677 40.8292C61.2495 41.3231 62.594 41.968 63.8013 42.7637L61.2495 47.7027C59.2738 46.5228 57.2708 45.7408 55.2403 45.3567V50.7484L58.1626 51.4481C60.2754 51.9695 61.8531 52.8064 62.8958 53.9588C63.9659 55.1112 64.501 56.5792 64.501 58.3628C64.501 60.0091 64.1306 61.4497 63.3897 62.6844C62.6763 63.9192 61.6199 64.907 60.2205 65.6478C58.8485 66.3612 57.1885 66.8003 55.2403 66.9649V70.5457H52.0299ZM52.0299 50.1311V45.192C51.0421 45.2744 50.2601 45.535 49.6839 45.9741C49.1351 46.4131 48.8607 46.9756 48.8607 47.6616C48.8607 48.2927 49.0665 48.7866 49.4781 49.1433C49.8897 49.5 50.6168 49.8018 51.6595 50.0487L52.0299 50.1311ZM55.2403 61.532C56.283 61.4222 57.065 61.1616 57.5863 60.75C58.1351 60.3384 58.4095 59.8033 58.4095 59.1448C58.4095 58.5137 58.2037 58.0472 57.7921 57.7454C57.408 57.4161 56.6534 57.0869 55.5284 56.7576L55.2403 56.6753V61.532Z" fill="#2A3636"/>
</svg>
