<svg width="109" height="108" viewBox="0 0 109 108" fill="none" xmlns="http://www.w3.org/2000/svg">
<path d="M107.25 53.5884C107.25 82.4851 83.6421 105.927 54.5 105.927C25.3579 105.927 1.75 82.4851 1.75 53.5884C1.75 24.6917 25.3579 1.25 54.5 1.25C83.6421 1.25 107.25 24.6917 107.25 53.5884Z" stroke="#C1F6ED" stroke-width="2.5"/>
<path d="M3.62915 67.8295C3.03402 66.044 2.39211 63.6584 2.88806 62.9728C16.5017 62.9728 32.6373 54.4336 37.8293 49.8241C53.526 34.1749 62.1927 42.8366 64.564 49.1236C54.2979 43.032 47.0818 47.6066 44.7571 50.6553C25.0432 68.4401 8.83666 69.4779 3.62915 67.8295Z" fill="#C1F6ED"/>
<path d="M64.564 60.5892C58.873 56.073 50.8789 55.1773 47.5933 55.294C52.0568 48.2921 60.3794 51.1804 67.6791 57.2633C73.5189 62.1296 80.7752 64.3673 83.6734 64.8778C77.8709 71.3196 68.516 64.7028 64.564 60.5892Z" fill="#C1F6ED"/>
<path d="M32.7614 65.5343C19.1848 73.2013 8.75431 73.8636 5.23612 73.2364C6.26343 75.6496 6.87901 77.5834 7.51456 78.1377C8.32047 78.444 9.99176 78.8139 18.2084 77.1749C25.8026 75.6601 37.6656 69.2838 43.3844 66.21L43.5017 66.1469C50.3854 62.9728 62.4037 67.8295 68.9067 74.8555C77.2208 81.2885 87.951 75.0598 92.368 71.3546C95.2693 68.8689 102.686 68.3255 105.538 67.8295C106.526 65.5343 106.789 63.0092 106.526 62.3966C104.247 62.3091 94.888 63.2061 86.7421 68.9477C78.5962 74.6892 72.4371 72.2736 70.3759 70.3481C56.5668 59.8452 49.732 55.9504 32.7614 65.5343Z" fill="#C1F6ED"/>
<path d="M36.388 74.8555C31.5348 77.1749 16.2818 81.7933 10.8729 83.2228C10.8729 83.7917 12.9143 86.6537 13.9186 87.634C15.174 88.8593 27.6469 86.8463 38.9452 78.8816C47.9838 72.5099 54.955 75.7308 57.3107 78.1377C72.2714 89.5158 75.3043 87.634 80.8372 87.634C85.2636 87.634 96.696 82.0471 101.175 78.8816C102.821 75.732 103.279 73.4989 103.759 72.3174C102.395 71.9964 97.1415 73.7563 89.3923 78.8816C80.6464 84.6662 76.0683 83.2228 70.3759 81.2885C69.074 80.6029 65.5392 78.8816 58.5661 73.2364C49.8092 66.1469 41.699 72.3174 36.388 74.8555Z" fill="#C1F6ED"/>
<path d="M3.62915 67.8295C3.03402 66.044 2.39211 63.6584 2.88806 62.9728C16.5017 62.9728 32.6373 54.4336 37.8293 49.8241C53.526 34.1749 62.1927 42.8366 64.564 49.1236C54.2979 43.032 47.0818 47.6066 44.7571 50.6553C25.0432 68.4401 8.83666 69.4779 3.62915 67.8295Z" stroke="#C1F6ED" stroke-width="2.5" stroke-linejoin="round"/>
<path d="M64.564 60.5892C58.873 56.073 50.8789 55.1773 47.5933 55.294C52.0568 48.2921 60.3794 51.1804 67.6791 57.2633C73.5189 62.1296 80.7752 64.3673 83.6734 64.8778C77.8709 71.3196 68.516 64.7028 64.564 60.5892Z" stroke="#C1F6ED" stroke-width="2.5" stroke-linejoin="round"/>
<path d="M32.7614 65.5343C19.1848 73.2013 8.75431 73.8636 5.23612 73.2364C6.26343 75.6496 6.87901 77.5834 7.51456 78.1377C8.32047 78.444 9.99176 78.8139 18.2084 77.1749C25.8026 75.6601 37.6656 69.2838 43.3844 66.21L43.5017 66.1469C50.3854 62.9728 62.4037 67.8295 68.9067 74.8555C77.2208 81.2885 87.951 75.0598 92.368 71.3546C95.2693 68.8689 102.686 68.3255 105.538 67.8295C106.526 65.5343 106.789 63.0092 106.526 62.3966C104.247 62.3091 94.888 63.2061 86.7421 68.9477C78.5962 74.6892 72.4371 72.2736 70.3759 70.3481C56.5668 59.8452 49.732 55.9504 32.7614 65.5343Z" stroke="#C1F6ED" stroke-width="2.5" stroke-linejoin="round"/>
<path d="M36.388 74.8555C31.5348 77.1749 16.2818 81.7933 10.8729 83.2228C10.8729 83.7917 12.9143 86.6537 13.9186 87.634C15.174 88.8593 27.6469 86.8463 38.9452 78.8816C47.9838 72.5099 54.955 75.7308 57.3107 78.1377C72.2714 89.5158 75.3043 87.634 80.8372 87.634C85.2636 87.634 96.696 82.0471 101.175 78.8816C102.821 75.732 103.279 73.4989 103.759 72.3174C102.395 71.9964 97.1415 73.7563 89.3923 78.8816C80.6464 84.6662 76.0683 83.2228 70.3759 81.2885C69.074 80.6029 65.5392 78.8816 58.5661 73.2364C49.8092 66.1469 41.699 72.3174 36.388 74.8555Z" stroke="#C1F6ED" stroke-width="2.5" stroke-linejoin="round"/>
</svg>
