<svg width="130" height="129" viewBox="0 0 130 129" fill="none" xmlns="http://www.w3.org/2000/svg">
<path d="M79.718 99.965H90.4851V83.3699L87.0277 77.6406H97.2021L94.535 83.3699V93.5443H98.9802H102.042H104.413V79.1223H108.265V93.5443H113.303V84.4565H117.551V93.5443H121.304L117.551 97.9894C116.168 104.114 87.9166 127.327 79.718 125.352C64.4266 121.667 73.429 106.913 79.718 99.965Z" fill="#E5F4FC"/>
<path d="M37.6373 97.9894H48.602L53.3434 125.352C48.76 129.54 24.1044 112.115 16.7947 104.114V85.5431L15.0166 82.0857H22.1288L20.1532 85.5431V96.0138H26.1788V77.6406H33.6861V97.9894H37.6373Z" fill="#E5F4FC"/>
<path d="M117.551 97.9894H102.042V93.5443M117.551 97.9894C116.168 104.114 87.9166 127.327 79.718 125.352C64.4266 121.667 73.429 106.913 79.718 99.965H90.4851V83.3699L87.0277 77.6406H97.2021L94.5351 83.3699V93.5443H98.9802H102.042M117.551 97.9894L121.304 93.5443H117.551V84.4565H113.303V93.5443H108.265V79.1223H104.413V93.5443H102.042M48.602 97.9894H37.6373H33.6861V77.6406H26.1788V96.0138H20.1532V85.5431L22.1288 82.0857H15.0166L16.7947 85.5431V104.114C24.1044 112.115 48.76 129.54 53.3434 125.352L48.602 97.9894Z" stroke="#E5F4FC" stroke-width="3"/>
<path d="M128.3 64.3061C128.3 98.9822 99.9707 127.112 65.0002 127.112C30.0297 127.112 1.7002 98.9822 1.7002 64.3061C1.7002 29.63 30.0297 1.5 65.0002 1.5C99.9707 1.5 128.3 29.63 128.3 64.3061Z" stroke="#E5F4FC" stroke-width="3"/>
<path d="M78.2332 66.224L80.8015 124.461L63.7124 128.412L50.1795 126.634L48.9941 81.847V47.6094H58.8139H61.7368V81.847H70.3413V66.224H73.5434H78.2332Z" fill="#E5F4FC"/>
<path d="M73.5434 66.224H78.2332L80.8015 124.461L63.7124 128.412L50.1795 126.634L48.9941 81.847V47.6094H58.8139M73.5434 66.224L75.8916 81.847H73.5434V66.224ZM73.5434 66.224H70.3413V81.847H61.7368V47.6094H58.8139M58.8139 47.6094V81.847V69.6374V47.6094Z" stroke="#E5F4FC" stroke-width="0.3"/>
<path d="M15.1196 46.8242C13.4051 49.4184 11.0049 56.0308 15.1196 61.7269C19.2343 67.4231 16.8341 73.2627 15.1196 75.4706" stroke="#E5F4FC" stroke-width="3"/>
<path d="M89.1974 43.2656C87.6321 45.6451 85.4405 51.7103 89.1974 56.935C92.9544 62.1598 90.7628 67.5161 89.1974 69.5412" stroke="#E5F4FC" stroke-width="3"/>
<path d="M96.1169 33.1914C93.8061 36.698 90.571 45.6361 96.1169 53.3358C101.663 61.0354 98.4277 68.929 96.1169 71.9134" stroke="#E5F4FC" stroke-width="3"/>
<path d="M22.8123 39.9797C21.1721 43.3199 18.5271 51.9687 21.0685 59.8421C23.6099 67.7156 21.0553 75.3345 19.4604 78.1597" stroke="#E5F4FC" stroke-width="3"/>
<path d="M52.076 31.8508C50.8432 31.8508 49.6894 31.6374 48.6147 31.2107C47.54 30.7682 46.5996 30.1597 45.7935 29.3852C45.0033 28.6108 44.379 27.7099 43.9206 26.6826C43.4781 25.6395 43.2568 24.5173 43.2568 23.3162C43.2568 22.0992 43.4781 20.977 43.9206 19.9497C44.379 18.9066 45.0112 17.9978 45.8172 17.2234C46.6233 16.4489 47.5558 15.8483 48.6147 15.4216C49.6894 14.9791 50.8432 14.7578 52.076 14.7578C52.9926 14.7578 53.8777 14.8843 54.7312 15.1371C55.5846 15.39 56.3749 15.7456 57.1019 16.204C57.8447 16.6623 58.4769 17.2155 58.9985 17.8635L56.6752 20.1631C56.0746 19.4203 55.3792 18.8592 54.5889 18.4799C53.8145 18.1005 52.9768 17.9109 52.076 17.9109C51.3331 17.9109 50.6377 18.0531 49.9897 18.3376C49.3417 18.6063 48.7806 18.9856 48.3065 19.4756C47.8323 19.9497 47.4609 20.5187 47.1923 21.1825C46.9236 21.8305 46.7892 22.5417 46.7892 23.3162C46.7892 24.0748 46.9236 24.786 47.1923 25.4498C47.4609 26.0978 47.8403 26.6668 48.3302 27.1567C48.8202 27.6309 49.3891 28.0023 50.0371 28.271C50.7009 28.5397 51.4201 28.674 52.1945 28.674C53.0638 28.674 53.8777 28.4923 54.6363 28.1287C55.395 27.7652 56.0667 27.2437 56.6515 26.5641L58.9037 28.7925C58.3821 29.4247 57.7578 29.97 57.0308 30.4284C56.3038 30.8867 55.5135 31.2423 54.6601 31.4952C53.8224 31.7323 52.961 31.8508 52.076 31.8508Z" fill="#E5F4FC"/>
<path d="M68.6978 31.8745C67.465 31.8745 66.3191 31.6611 65.2602 31.2344C64.2013 30.7919 63.2688 30.1834 62.4627 29.4089C61.6725 28.6187 61.0482 27.7099 60.5898 26.6826C60.1473 25.6395 59.926 24.5173 59.926 23.3162C59.926 22.115 60.1473 21.0007 60.5898 19.9734C61.0482 18.9303 61.6725 18.0215 62.4627 17.2471C63.2688 16.4568 64.2013 15.8483 65.2602 15.4216C66.3191 14.9791 67.465 14.7578 68.6978 14.7578C69.9305 14.7578 71.0764 14.9791 72.1353 15.4216C73.21 15.8483 74.1425 16.4568 74.9328 17.2471C75.7388 18.0215 76.3631 18.9303 76.8057 19.9734C77.2482 21.0007 77.4695 22.115 77.4695 23.3162C77.4695 24.5173 77.2482 25.6395 76.8057 26.6826C76.3631 27.7099 75.7388 28.6187 74.9328 29.4089C74.1425 30.1834 73.21 30.7919 72.1353 31.2344C71.0764 31.6611 69.9305 31.8745 68.6978 31.8745ZM68.6978 28.7214C69.4564 28.7214 70.1518 28.5871 70.784 28.3184C71.4162 28.0339 71.9694 27.6546 72.4435 27.1804C72.9177 26.6905 73.2891 26.1136 73.5578 25.4498C73.8264 24.786 73.9608 24.0748 73.9608 23.3162C73.9608 22.5417 73.8264 21.8305 73.5578 21.1825C73.2891 20.5187 72.9177 19.9497 72.4435 19.4756C71.9694 18.9856 71.4162 18.6063 70.784 18.3376C70.1518 18.0531 69.4564 17.9109 68.6978 17.9109C67.9549 17.9109 67.2674 18.0531 66.6352 18.3376C66.003 18.6063 65.4498 18.9856 64.9757 19.4756C64.5016 19.9497 64.1301 20.5187 63.8615 21.1825C63.5928 21.8305 63.4584 22.5338 63.4584 23.2924C63.4584 24.0669 63.5928 24.786 63.8615 25.4498C64.1301 26.1136 64.5016 26.6905 64.9757 27.1804C65.4498 27.6546 66.003 28.0339 66.6352 28.3184C67.2674 28.5871 67.9549 28.7214 68.6978 28.7214Z" fill="#E5F4FC"/>
<path d="M78.998 31.6137V30.1913L82.3408 27.3227C82.6094 27.0698 82.8149 26.8406 82.9571 26.6352C83.0994 26.4139 83.1705 26.1926 83.1705 25.9714C83.1705 25.6553 83.0441 25.4024 82.7912 25.2127C82.5541 25.0073 82.2459 24.9045 81.8666 24.9045C81.4715 24.9045 81.108 24.9836 80.7761 25.1416C80.4442 25.2997 80.0728 25.5604 79.6618 25.924L78.5476 24.5964C79.0533 24.1538 79.5907 23.814 80.1597 23.5769C80.7445 23.3399 81.3371 23.2134 81.9377 23.1976C82.8702 23.2134 83.6289 23.4663 84.2136 23.9563C84.8142 24.4304 85.1145 25.0626 85.1145 25.8528C85.1145 26.327 84.9881 26.7695 84.7352 27.1804C84.4981 27.5914 84.1109 28.026 83.5735 28.4844L81.914 29.9542H85.1856V31.6137H78.998Z" fill="#E5F4FC"/>
</svg>
