<svg width="131" height="129" viewBox="0 0 131 129" fill="none" xmlns="http://www.w3.org/2000/svg">
<path d="M128.8 64.3061C128.8 98.9822 100.471 127.112 65.5002 127.112C30.5297 127.112 2.2002 98.9822 2.2002 64.3061C2.2002 29.63 30.5297 1.5 65.5002 1.5C100.471 1.5 128.8 29.63 128.8 64.3061Z" stroke="#E5F4FC" stroke-width="3"/>
<path d="M4.45538 81.3978C3.74121 79.2552 2.97093 76.3924 3.56606 75.5697C19.9024 75.5697 39.2651 65.3227 45.4956 59.7913C64.3316 41.0122 74.7317 51.4063 77.5771 58.9507C65.2578 51.6407 56.5986 57.1302 53.8089 60.7887C30.1522 82.1305 10.7044 83.3758 4.45538 81.3978Z" fill="#E5F4FC"/>
<path d="M77.5771 72.7094C70.748 67.2899 61.1551 66.2151 57.2123 66.3551C62.5686 57.9529 72.5557 61.4188 81.3154 68.7183C88.3231 74.5579 97.0307 77.2431 100.509 77.8558C93.5454 85.5858 82.3196 77.6457 77.5771 72.7094Z" fill="#E5F4FC"/>
<path d="M39.414 78.6435C23.1222 87.844 10.6056 88.6387 6.38374 87.886C7.61651 90.7819 8.3552 93.1024 9.11786 93.7676C10.085 94.1352 12.0905 94.5791 21.9505 92.6122C31.0635 90.7944 45.2991 83.1429 52.1616 79.4544L52.3024 79.3787C60.5628 75.5697 74.9848 81.3978 82.7885 89.829C92.7653 97.5486 105.642 90.0741 110.942 85.6279C114.424 82.645 123.324 81.9929 126.746 81.3978C127.931 78.6435 128.247 75.6134 127.931 74.8782C125.197 74.7732 113.966 75.8497 104.191 82.7396C94.4158 89.6294 87.0249 86.7307 84.5514 84.42C67.9806 71.8166 59.7788 67.1429 39.414 78.6435Z" fill="#E5F4FC"/>
<path d="M43.766 89.829C37.9421 92.6122 19.6385 98.1542 13.1478 99.8697C13.1478 100.552 15.5976 103.987 16.8027 105.163C18.3092 106.634 33.2767 104.218 46.8346 94.6603C57.681 87.0142 66.0464 90.8793 68.8733 93.7676C86.8261 107.421 90.4656 105.163 97.1051 105.163C102.417 105.163 116.136 98.4588 121.51 94.6603C123.486 90.8807 124.035 88.201 124.612 86.7832C122.975 86.3981 116.67 88.51 107.371 94.6603C96.8761 101.602 91.3824 99.8697 84.5514 97.5486C82.9892 96.7259 78.7475 94.6603 70.3797 87.886C59.8714 79.3787 50.1392 86.7832 43.766 89.829Z" fill="#E5F4FC"/>
<path d="M4.45538 81.3978C3.74121 79.2552 2.97093 76.3924 3.56606 75.5697C19.9024 75.5697 39.2651 65.3227 45.4956 59.7913C64.3316 41.0122 74.7317 51.4063 77.5771 58.9507C65.2578 51.6407 56.5986 57.1302 53.8089 60.7887C30.1522 82.1305 10.7044 83.3758 4.45538 81.3978Z" stroke="#E5F4FC" stroke-width="3" stroke-linejoin="round"/>
<path d="M77.5771 72.7094C70.748 67.2899 61.1551 66.2151 57.2123 66.3551C62.5686 57.9529 72.5557 61.4188 81.3154 68.7183C88.3231 74.5579 97.0307 77.2431 100.509 77.8558C93.5454 85.5858 82.3196 77.6457 77.5771 72.7094Z" stroke="#E5F4FC" stroke-width="3" stroke-linejoin="round"/>
<path d="M39.414 78.6435C23.1222 87.844 10.6056 88.6387 6.38374 87.886C7.61651 90.7819 8.3552 93.1024 9.11786 93.7676C10.085 94.1352 12.0905 94.5791 21.9505 92.6122C31.0635 90.7944 45.2991 83.1429 52.1616 79.4544L52.3024 79.3787C60.5628 75.5697 74.9848 81.3978 82.7885 89.829C92.7653 97.5486 105.642 90.0741 110.942 85.6279C114.424 82.645 123.324 81.9929 126.746 81.3978C127.931 78.6435 128.247 75.6134 127.931 74.8782C125.197 74.7732 113.966 75.8497 104.191 82.7396C94.4158 89.6294 87.0249 86.7307 84.5514 84.42C67.9806 71.8166 59.7788 67.1429 39.414 78.6435Z" stroke="#E5F4FC" stroke-width="3" stroke-linejoin="round"/>
<path d="M43.766 89.829C37.9421 92.6122 19.6385 98.1542 13.1478 99.8697C13.1478 100.552 15.5976 103.987 16.8027 105.163C18.3092 106.634 33.2767 104.218 46.8346 94.6603C57.681 87.0142 66.0464 90.8793 68.8733 93.7676C86.8261 107.421 90.4656 105.163 97.1051 105.163C102.417 105.163 116.136 98.4588 121.51 94.6603C123.486 90.8807 124.035 88.201 124.612 86.7832C122.975 86.3981 116.67 88.51 107.371 94.6603C96.8761 101.602 91.3824 99.8697 84.5514 97.5486C82.9892 96.7259 78.7475 94.6603 70.3797 87.886C59.8714 79.3787 50.1392 86.7832 43.766 89.829Z" stroke="#E5F4FC" stroke-width="3" stroke-linejoin="round"/>
</svg>
