<svg width="57" height="41" viewBox="0 0 57 41" fill="none" xmlns="http://www.w3.org/2000/svg">
<g filter="url(#filter0_d_2801_631)">
<path fill-rule="evenodd" clip-rule="evenodd" d="M11.4813 37.9336C14.8046 36.5696 17.8242 34.5702 20.3678 32.0498C22.9113 29.5294 24.929 26.5371 26.3056 23.244C27.6821 19.9509 28.3906 16.4214 28.3906 12.8569L0.998962 39.9998C4.59609 39.9998 8.15799 39.2977 11.4813 37.9336ZM28.3896 12.8577C24.7966 12.8577 21.2389 13.5589 17.9194 14.9214C14.5999 16.2839 11.5838 18.2809 9.04322 20.7984C6.50261 23.3159 4.48729 26.3047 3.11233 29.594C1.73736 32.8833 1.02968 36.4087 1.02968 39.9691L28.3896 12.8577Z" fill="#505151"/>
</g>
<g filter="url(#filter1_d_2801_631)">
<path fill-rule="evenodd" clip-rule="evenodd" d="M45.3117 37.9336C41.9884 36.5696 38.9687 34.5702 36.4252 32.0498C33.8816 29.5294 31.864 26.5371 30.4874 23.244C29.1109 19.9509 28.4023 16.4214 28.4023 12.8569L55.794 39.9998C52.1969 39.9998 48.635 39.2977 45.3117 37.9336ZM28.4034 12.8577C31.9963 12.8577 35.5541 13.5589 38.8736 14.9214C42.193 16.2839 45.2092 18.2809 47.7498 20.7984C50.2904 23.3159 52.3057 26.3047 53.6806 29.594C55.0556 32.8833 55.7633 36.4087 55.7633 39.9691L28.4034 12.8577Z" fill="#505151"/>
</g>
<g filter="url(#filter2_d_2801_631)">
<path fill-rule="evenodd" clip-rule="evenodd" d="M11.4813 2.06613C14.8046 3.43018 17.8242 5.42951 20.3678 7.94996C22.9113 10.4704 24.929 13.4626 26.3056 16.7557C27.6821 20.0489 28.3906 23.5784 28.3906 27.1428L0.998962 -5.33259e-10C4.59609 -1.56271e-07 8.15799 0.70207 11.4813 2.06613ZM28.3896 27.1421C24.7966 27.1421 21.2389 26.4408 17.9194 25.0783C14.5999 23.7159 11.5838 21.7189 9.04322 19.2013C6.50261 16.6838 4.48729 13.6951 3.11233 10.4058C1.73736 7.11646 1.02968 3.59101 1.02968 0.0306912L28.3896 27.1421Z" fill="#2EAF7D"/>
</g>
<g filter="url(#filter3_d_2801_631)">
<path fill-rule="evenodd" clip-rule="evenodd" d="M45.3117 2.06613C41.9884 3.43018 38.9687 5.42951 36.4252 7.94996C33.8816 10.4704 31.864 13.4626 30.4874 16.7557C29.1108 20.0489 28.4023 23.5784 28.4023 27.1428L55.794 -5.33259e-10C52.1969 -1.56271e-07 48.635 0.70207 45.3117 2.06613ZM28.4034 27.1421C31.9963 27.1421 35.5541 26.4408 38.8736 25.0784C42.193 23.7159 45.2092 21.7189 47.7498 19.2013C50.2904 16.6838 52.3057 13.6951 53.6806 10.4058C55.0556 7.11646 55.7633 3.59101 55.7633 0.0306931L28.4034 27.1421Z" fill="#2EAF7D"/>
</g>
<defs>
<filter id="filter0_d_2801_631" x="0.603094" y="12.8569" width="28.1844" height="27.9366" filterUnits="userSpaceOnUse" color-interpolation-filters="sRGB">
<feFlood flood-opacity="0" result="BackgroundImageFix"/>
<feColorMatrix in="SourceAlpha" type="matrix" values="0 0 0 0 0 0 0 0 0 0 0 0 0 0 0 0 0 0 127 0" result="hardAlpha"/>
<feOffset dy="0.396906"/>
<feGaussianBlur stdDeviation="0.198453"/>
<feComposite in2="hardAlpha" operator="out"/>
<feColorMatrix type="matrix" values="0 0 0 0 0 0 0 0 0 0 0 0 0 0 0 0 0 0 0.25 0"/>
<feBlend mode="normal" in2="BackgroundImageFix" result="effect1_dropShadow_2801_631"/>
<feBlend mode="normal" in="SourceGraphic" in2="effect1_dropShadow_2801_631" result="shape"/>
</filter>
<filter id="filter1_d_2801_631" x="28.0054" y="12.8569" width="28.1844" height="27.9366" filterUnits="userSpaceOnUse" color-interpolation-filters="sRGB">
<feFlood flood-opacity="0" result="BackgroundImageFix"/>
<feColorMatrix in="SourceAlpha" type="matrix" values="0 0 0 0 0 0 0 0 0 0 0 0 0 0 0 0 0 0 127 0" result="hardAlpha"/>
<feOffset dy="0.396906"/>
<feGaussianBlur stdDeviation="0.198453"/>
<feComposite in2="hardAlpha" operator="out"/>
<feColorMatrix type="matrix" values="0 0 0 0 0 0 0 0 0 0 0 0 0 0 0 0 0 0 0.25 0"/>
<feBlend mode="normal" in2="BackgroundImageFix" result="effect1_dropShadow_2801_631"/>
<feBlend mode="normal" in="SourceGraphic" in2="effect1_dropShadow_2801_631" result="shape"/>
</filter>
<filter id="filter2_d_2801_631" x="0.603094" y="0" width="28.1844" height="27.9366" filterUnits="userSpaceOnUse" color-interpolation-filters="sRGB">
<feFlood flood-opacity="0" result="BackgroundImageFix"/>
<feColorMatrix in="SourceAlpha" type="matrix" values="0 0 0 0 0 0 0 0 0 0 0 0 0 0 0 0 0 0 127 0" result="hardAlpha"/>
<feOffset dy="0.396906"/>
<feGaussianBlur stdDeviation="0.198453"/>
<feComposite in2="hardAlpha" operator="out"/>
<feColorMatrix type="matrix" values="0 0 0 0 0 0 0 0 0 0 0 0 0 0 0 0 0 0 0.25 0"/>
<feBlend mode="normal" in2="BackgroundImageFix" result="effect1_dropShadow_2801_631"/>
<feBlend mode="normal" in="SourceGraphic" in2="effect1_dropShadow_2801_631" result="shape"/>
</filter>
<filter id="filter3_d_2801_631" x="28.0054" y="0" width="28.1844" height="27.9366" filterUnits="userSpaceOnUse" color-interpolation-filters="sRGB">
<feFlood flood-opacity="0" result="BackgroundImageFix"/>
<feColorMatrix in="SourceAlpha" type="matrix" values="0 0 0 0 0 0 0 0 0 0 0 0 0 0 0 0 0 0 127 0" result="hardAlpha"/>
<feOffset dy="0.396906"/>
<feGaussianBlur stdDeviation="0.198453"/>
<feComposite in2="hardAlpha" operator="out"/>
<feColorMatrix type="matrix" values="0 0 0 0 0 0 0 0 0 0 0 0 0 0 0 0 0 0 0.25 0"/>
<feBlend mode="normal" in2="BackgroundImageFix" result="effect1_dropShadow_2801_631"/>
<feBlend mode="normal" in="SourceGraphic" in2="effect1_dropShadow_2801_631" result="shape"/>
</filter>
</defs>
</svg>
