<svg width="109" height="108" viewBox="0 0 109 108" fill="none" xmlns="http://www.w3.org/2000/svg">
<path d="M66.7645 83.3048H75.7371V69.4756L72.856 64.7012H81.3346L79.1121 69.4756V77.9542H82.8163H85.3682H87.3436V65.9359H90.554V77.9542H94.7522V70.381H98.2918V77.9542H101.42L98.2918 81.6585C97.1394 86.7621 73.5967 106.107 66.7645 104.46C54.0217 101.39 61.5236 89.0945 66.7645 83.3048Z" fill="#C1F6ED"/>
<path d="M31.6973 81.6585H40.8345L44.7857 104.46C40.9662 107.951 20.4199 93.4298 14.3284 86.7621V71.2865L12.8467 68.4054H18.7735L17.1272 71.2865V80.0121H22.1485V64.7012H28.4046V81.6585H31.6973Z" fill="#C1F6ED"/>
<path d="M98.2918 81.6585H85.3682V77.9542M98.2918 81.6585C97.1394 86.7621 73.5967 106.107 66.7645 104.46C54.0217 101.39 61.5236 89.0945 66.7645 83.3048H75.7371V69.4756L72.856 64.7012H81.3346L79.1121 69.4756V77.9542H82.8163H85.3682M98.2918 81.6585L101.42 77.9542H98.2918V70.381H94.7522V77.9542H90.554V65.9359H87.3436V77.9542H85.3682M40.8345 81.6585H31.6973H28.4046V64.7012H22.1485V80.0121H17.1272V71.2865L18.7735 68.4054H12.8467L14.3284 71.2865V86.7621C20.4199 93.4298 40.9662 107.951 44.7857 104.46L40.8345 81.6585Z" stroke="#C1F6ED" stroke-width="2.5"/>
<path d="M107.25 53.5884C107.25 82.4851 83.6421 105.927 54.5 105.927C25.3579 105.927 1.75 82.4851 1.75 53.5884C1.75 24.6917 25.3579 1.25 54.5 1.25C83.6421 1.25 107.25 24.6917 107.25 53.5884Z" stroke="#C1F6ED" stroke-width="2.5"/>
<path d="M65.528 55.1892L67.6682 103.72L53.4274 107.012L42.1499 105.531L41.1621 68.2084V39.677H49.3452H51.781V68.2084H58.9514V55.1892H61.6198H65.528Z" fill="#C1F6ED"/>
<path d="M61.6198 55.1892H65.528L67.6682 103.72L53.4274 107.012L42.1499 105.531L41.1621 68.2084V39.677H49.3452M61.6198 55.1892L63.5767 68.2084H61.6198V55.1892ZM61.6198 55.1892H58.9514V68.2084H51.781V39.677H49.3452M49.3452 39.677V68.2084V58.0337V39.677Z" stroke="#C1F6ED" stroke-width="0.25"/>
<path d="M12.9333 39.0181C11.5046 41.1799 9.5044 46.6902 12.9333 51.437C16.3623 56.1838 14.3621 61.0502 12.9333 62.89" stroke="#C1F6ED" stroke-width="2.5"/>
<path d="M74.6642 36.0549C73.3597 38.0378 71.5334 43.0921 74.6642 47.4461C77.795 51.8 75.9687 56.2637 74.6642 57.9513" stroke="#C1F6ED" stroke-width="2.5"/>
<path d="M80.4307 27.6587C78.5051 30.5809 75.8091 38.0293 80.4307 44.4457C85.0523 50.862 82.3564 57.44 80.4307 59.927" stroke="#C1F6ED" stroke-width="2.5"/>
<path d="M19.3432 33.3176C17.9764 36.1011 15.7723 43.3083 17.8901 49.8696C20.0079 56.4308 17.8791 62.7799 16.55 65.1342" stroke="#C1F6ED" stroke-width="2.5"/>
<path d="M43.7301 26.5391C42.7028 26.5391 41.7413 26.3613 40.8457 26.0057C39.9501 25.6369 39.1665 25.1298 38.4948 24.4844C37.8362 23.8391 37.316 23.0883 36.934 22.2322C36.5652 21.363 36.3809 20.4278 36.3809 19.4269C36.3809 18.4127 36.5652 17.4776 36.934 16.6215C37.316 15.7522 37.8428 14.9949 38.5145 14.3496C39.1862 13.7042 39.9633 13.2037 40.8457 12.8481C41.7413 12.4793 42.7028 12.2949 43.7301 12.2949C44.494 12.2949 45.2316 12.4003 45.9428 12.611C46.654 12.8218 47.3126 13.1181 47.9184 13.5C48.5374 13.882 49.0643 14.343 49.4989 14.883L47.5628 16.7993C47.0623 16.1803 46.4828 15.7127 45.8243 15.3966C45.1789 15.0805 44.4809 14.9225 43.7301 14.9225C43.1111 14.9225 42.5316 15.041 41.9916 15.2781C41.4516 15.502 40.984 15.8181 40.5889 16.2264C40.1938 16.6215 39.8843 17.0957 39.6604 17.6488C39.4365 18.1888 39.3245 18.7815 39.3245 19.4269C39.3245 20.0591 39.4365 20.6518 39.6604 21.2049C39.8843 21.7449 40.2004 22.2191 40.6087 22.6274C41.017 23.0225 41.4911 23.332 42.0311 23.5559C42.5843 23.7798 43.1835 23.8918 43.8289 23.8918C44.5533 23.8918 45.2316 23.7403 45.8638 23.4374C46.496 23.1344 47.0557 22.6998 47.5431 22.1335L49.4199 23.9905C48.9853 24.5174 48.465 24.9718 47.8592 25.3537C47.2533 25.7357 46.5948 26.032 45.8835 26.2427C45.1855 26.4403 44.4677 26.5391 43.7301 26.5391Z" fill="#C1F6ED"/>
<path d="M57.5816 26.5588C56.5543 26.5588 55.5994 26.381 54.717 26.0254C53.8345 25.6566 53.0575 25.1496 52.3858 24.5042C51.7272 23.8457 51.207 23.0883 50.825 22.2322C50.4563 21.363 50.2719 20.4278 50.2719 19.4269C50.2719 18.4259 50.4563 17.4974 50.825 16.6413C51.207 15.772 51.7272 15.0147 52.3858 14.3693C53.0575 13.7108 53.8345 13.2037 54.717 12.8481C55.5994 12.4793 56.5543 12.2949 57.5816 12.2949C58.6089 12.2949 59.5638 12.4793 60.4463 12.8481C61.3419 13.2037 62.1189 13.7108 62.7775 14.3693C63.4492 15.0147 63.9694 15.772 64.3382 16.6413C64.707 17.4974 64.8914 18.4259 64.8914 19.4269C64.8914 20.4278 64.707 21.363 64.3382 22.2322C63.9694 23.0883 63.4492 23.8457 62.7775 24.5042C62.1189 25.1496 61.3419 25.6566 60.4463 26.0254C59.5638 26.381 58.6089 26.5588 57.5816 26.5588ZM57.5816 23.9313C58.2138 23.9313 58.7933 23.8193 59.3202 23.5954C59.847 23.3583 60.308 23.0422 60.7031 22.6471C61.0982 22.2388 61.4077 21.7581 61.6316 21.2049C61.8555 20.6518 61.9675 20.0591 61.9675 19.4269C61.9675 18.7815 61.8555 18.1888 61.6316 17.6488C61.4077 17.0957 61.0982 16.6215 60.7031 16.2264C60.308 15.8181 59.847 15.502 59.3202 15.2781C58.7933 15.041 58.2138 14.9225 57.5816 14.9225C56.9626 14.9225 56.3897 15.041 55.8628 15.2781C55.336 15.502 54.875 15.8181 54.4799 16.2264C54.0848 16.6215 53.7753 17.0957 53.5514 17.6488C53.3275 18.1888 53.2155 18.7749 53.2155 19.4071C53.2155 20.0525 53.3275 20.6518 53.5514 21.2049C53.7753 21.7581 54.0848 22.2388 54.4799 22.6471C54.875 23.0422 55.336 23.3583 55.8628 23.5954C56.3897 23.8193 56.9626 23.9313 57.5816 23.9313Z" fill="#C1F6ED"/>
<path d="M66.1652 26.3415V25.1561L68.9508 22.7657C69.1747 22.5549 69.3459 22.3639 69.4645 22.1927C69.583 22.0083 69.6423 21.8239 69.6423 21.6396C69.6423 21.3761 69.5369 21.1654 69.3262 21.0074C69.1286 20.8361 68.8718 20.7505 68.5557 20.7505C68.2264 20.7505 67.9235 20.8164 67.6469 20.9481C67.3703 21.0798 67.0608 21.2971 66.7184 21.6L65.7898 20.4937C66.2113 20.1249 66.6591 19.8418 67.1332 19.6442C67.6206 19.4466 68.1145 19.3413 68.6149 19.3281C69.392 19.3413 70.0242 19.552 70.5115 19.9603C71.012 20.3554 71.2623 20.8822 71.2623 21.5408C71.2623 21.9359 71.1569 22.3047 70.9462 22.6471C70.7486 22.9896 70.4259 23.3518 69.9781 23.7337L68.5952 24.9586H71.3215V26.3415H66.1652Z" fill="#C1F6ED"/>
</svg>
