<svg width="109" height="108" viewBox="0 0 109 108" fill="none" xmlns="http://www.w3.org/2000/svg">
<path d="M107.25 53.5884C107.25 82.4851 83.6421 105.927 54.5 105.927C25.3579 105.927 1.75 82.4851 1.75 53.5884C1.75 24.6917 25.3579 1.25 54.5 1.25C83.6421 1.25 107.25 24.6917 107.25 53.5884Z" stroke="#C1F6ED" stroke-width="2.5"/>
<path d="M9.41335 82.0911C8.77696 80.9632 8.11307 79.9511 7.47702 78.9935C7.42031 78.9082 7.36383 78.8232 7.30762 78.7387C6.73262 77.8741 6.18555 77.0515 5.70409 76.2196C4.66738 74.4283 3.9399 72.602 3.91489 70.2592L54.2496 70.2592L104.584 70.2592C104.553 72.6064 103.646 74.6739 102.426 76.7119C101.876 77.63 101.264 78.5393 100.641 79.465C100.56 79.5852 100.479 79.7057 100.397 79.8265C99.692 80.8765 98.9816 81.9507 98.345 83.0789C95.8206 87.5528 93.1786 90.143 88.5018 93.5762C87.4142 94.3746 86.3698 95.2009 85.3313 96.0224C81.8777 98.7547 78.4907 101.434 73.8047 102.859C67.6801 104.721 60.8547 106.723 54.2496 106.723C47.6433 106.723 43.121 105.379 36.9994 103.518C30.8906 101.66 26.9764 99.6578 22.3022 96.2266C17.6289 92.7959 11.9394 86.5678 9.41335 82.0911Z" fill="#C1F6ED" stroke="#C1F6ED" stroke-width="0.25"/>
<rect x="42.9395" y="50.6677" width="6.66463" height="20.9878" rx="0.875" fill="#C1F6ED" stroke="#C1F6ED" stroke-width="0.25"/>
<rect x="76.0283" y="16.0947" width="6.66463" height="57.5366" rx="0.875" fill="#C1F6ED" stroke="#C1F6ED" stroke-width="0.25"/>
<rect x="64.9961" y="28.4421" width="6.66463" height="43.2134" rx="0.875" fill="#C1F6ED" stroke="#C1F6ED" stroke-width="0.25"/>
<rect x="53.9639" y="42.2712" width="6.66463" height="29.3841" rx="0.875" fill="#C1F6ED" stroke="#C1F6ED" stroke-width="0.25"/>
<rect x="31.9072" y="58.4053" width="6.66463" height="16.378" rx="0.875" fill="#C1F6ED" stroke="#C1F6ED" stroke-width="0.25"/>
<rect x="21.538" y="38.265" width="3.17447" height="16.4065" rx="0.875" transform="rotate(47.2492 21.538 38.265)" fill="#C1F6ED" stroke="#C1F6ED" stroke-width="0.25"/>
<path d="M10.8711 50.1309L31.615 31.2803L36.2248 35.7254L57.2979 17.7803" stroke="#C1F6ED" stroke-width="5.25" stroke-linejoin="round"/>
<path d="M57.5448 25.8478L48.5723 16.3813L60.5082 14.9819L57.5448 25.8478Z" fill="#C1F6ED" stroke="#C1F6ED" stroke-width="2.5"/>
</svg>
