<svg width="109" height="108" viewBox="0 0 109 108" fill="none" xmlns="http://www.w3.org/2000/svg">
<path d="M66.7655 83.3068H75.738V69.4775L72.8569 64.7031H81.3356L79.113 69.4775V77.9562H82.8173H85.3691H87.3446V65.9379H90.555V77.9562H94.7532V70.383H98.2928V77.9562H101.421L98.2928 81.6604C97.1403 86.7641 73.5977 106.109 66.7655 104.462C54.0227 101.392 61.5246 89.0964 66.7655 83.3068Z" fill="#C1F6ED"/>
<path d="M31.6983 81.6604H40.8355L44.7867 104.462C40.9672 107.953 20.4208 93.4318 14.3294 86.7641V71.2885L12.8477 68.4074H18.7745L17.1281 71.2885V80.0141H22.1495V64.7031H28.4056V81.6604H31.6983Z" fill="#C1F6ED"/>
<path d="M98.2928 81.6604H85.3691V77.9562M98.2928 81.6604C97.1403 86.7641 73.5977 106.109 66.7655 104.462C54.0227 101.392 61.5246 89.0964 66.7655 83.3068H75.738V69.4775L72.8569 64.7031H81.3356L79.113 69.4775V77.9562H82.8173H85.3691M98.2928 81.6604L101.421 77.9562H98.2928V70.383H94.7531V77.9562H90.555V65.9379H87.3446V77.9562H85.3691M40.8355 81.6604H31.6983H28.4056V64.7031H22.1495V80.0141H17.1281V71.2885L18.7745 68.4074H12.8477L14.3294 71.2885V86.7641C20.4208 93.4318 40.9672 107.953 44.7867 104.462L40.8355 81.6604Z" stroke="#C1F6ED" stroke-width="2.5"/>
<path d="M107.25 53.5884C107.25 82.4851 83.6421 105.927 54.5 105.927C25.3579 105.927 1.75 82.4851 1.75 53.5884C1.75 24.6917 25.3579 1.25 54.5 1.25C83.6421 1.25 107.25 24.6917 107.25 53.5884Z" stroke="#C1F6ED" stroke-width="2.5"/>
<path d="M65.528 55.1919L67.6682 103.722L53.4274 107.015L42.1499 105.533L41.1621 68.211V39.6797H49.3452H51.781V68.211H58.9514V55.1919H61.6198H65.528Z" fill="#C1F6ED"/>
<path d="M61.6198 55.1919H65.528L67.6682 103.722L53.4274 107.015L42.1499 105.533L41.1621 68.211V39.6797H49.3452M61.6198 55.1919L63.5767 68.211H61.6198V55.1919ZM61.6198 55.1919H58.9514V68.211H51.781V39.6797H49.3452M49.3452 39.6797V68.211V58.0364V39.6797Z" stroke="#C1F6ED" stroke-width="0.25"/>
<path d="M12.9324 39.0156C11.5036 41.1774 9.50342 46.6878 12.9324 51.4346C16.3613 56.1814 14.3611 61.0477 12.9324 62.8876" stroke="#C1F6ED" stroke-width="2.5"/>
<path d="M74.6642 36.0547C73.3597 38.0376 71.5334 43.0919 74.6642 47.4458C77.795 51.7998 75.9687 56.2634 74.6642 57.951" stroke="#C1F6ED" stroke-width="2.5"/>
<path d="M80.4307 27.6562C78.5051 30.5784 75.8091 38.0269 80.4307 44.4432C85.0523 50.8596 82.3564 57.4376 80.4307 59.9245" stroke="#C1F6ED" stroke-width="2.5"/>
<path d="M19.3432 33.3171C17.9764 36.1006 15.7723 43.3079 17.8901 49.8691C20.0079 56.4303 17.8791 62.7794 16.55 65.1337" stroke="#C1F6ED" stroke-width="2.5"/>
<path d="M43.7301 26.541C42.7028 26.541 41.7413 26.3632 40.8457 26.0076C39.9501 25.6388 39.1665 25.1318 38.4948 24.4864C37.8362 23.841 37.316 23.0903 36.934 22.2342C36.5652 21.3649 36.3809 20.4298 36.3809 19.4288C36.3809 18.4147 36.5652 17.4796 36.934 16.6235C37.316 15.7542 37.8428 14.9969 38.5145 14.3515C39.1862 13.7061 39.9633 13.2057 40.8457 12.85C41.7413 12.4813 42.7028 12.2969 43.7301 12.2969C44.494 12.2969 45.2316 12.4022 45.9428 12.613C46.654 12.8237 47.3126 13.12 47.9184 13.502C48.5374 13.8839 49.0643 14.3449 49.4989 14.8849L47.5628 16.8013C47.0623 16.1822 46.4828 15.7147 45.8243 15.3986C45.1789 15.0825 44.4809 14.9244 43.7301 14.9244C43.1111 14.9244 42.5316 15.043 41.9916 15.28C41.4516 15.5039 40.984 15.82 40.5889 16.2283C40.1938 16.6235 39.8843 17.0976 39.6604 17.6508C39.4365 18.1908 39.3245 18.7835 39.3245 19.4288C39.3245 20.061 39.4365 20.6537 39.6604 21.2069C39.8843 21.7469 40.2004 22.221 40.6087 22.6293C41.017 23.0244 41.4911 23.3339 42.0311 23.5579C42.5843 23.7818 43.1835 23.8937 43.8289 23.8937C44.5533 23.8937 45.2316 23.7422 45.8638 23.4393C46.496 23.1364 47.0557 22.7018 47.5431 22.1354L49.4199 23.9925C48.9853 24.5193 48.465 24.9737 47.8592 25.3557C47.2533 25.7376 46.5948 26.0339 45.8835 26.2447C45.1855 26.4422 44.4677 26.541 43.7301 26.541Z" fill="#C1F6ED"/>
<path d="M57.5816 26.5608C56.5543 26.5608 55.5994 26.383 54.717 26.0274C53.8345 25.6586 53.0575 25.1515 52.3858 24.5061C51.7272 23.8476 51.207 23.0903 50.825 22.2342C50.4563 21.3649 50.2719 20.4298 50.2719 19.4288C50.2719 18.4279 50.4563 17.4993 50.825 16.6432C51.207 15.7739 51.7272 15.0166 52.3858 14.3713C53.0575 13.7127 53.8345 13.2057 54.717 12.85C55.5994 12.4813 56.5543 12.2969 57.5816 12.2969C58.6089 12.2969 59.5638 12.4813 60.4463 12.85C61.3419 13.2057 62.1189 13.7127 62.7775 14.3713C63.4492 15.0166 63.9694 15.7739 64.3382 16.6432C64.707 17.4993 64.8914 18.4279 64.8914 19.4288C64.8914 20.4298 64.707 21.3649 64.3382 22.2342C63.9694 23.0903 63.4492 23.8476 62.7775 24.5061C62.1189 25.1515 61.3419 25.6586 60.4463 26.0274C59.5638 26.383 58.6089 26.5608 57.5816 26.5608ZM57.5816 23.9332C58.2138 23.9332 58.7933 23.8213 59.3202 23.5974C59.847 23.3603 60.308 23.0442 60.7031 22.6491C61.0982 22.2408 61.4077 21.76 61.6316 21.2069C61.8555 20.6537 61.9675 20.061 61.9675 19.4288C61.9675 18.7835 61.8555 18.1908 61.6316 17.6508C61.4077 17.0976 61.0982 16.6235 60.7031 16.2283C60.308 15.82 59.847 15.5039 59.3202 15.28C58.7933 15.043 58.2138 14.9244 57.5816 14.9244C56.9626 14.9244 56.3897 15.043 55.8628 15.28C55.336 15.5039 54.875 15.82 54.4799 16.2283C54.0848 16.6235 53.7753 17.0976 53.5514 17.6508C53.3275 18.1908 53.2155 18.7769 53.2155 19.4091C53.2155 20.0544 53.3275 20.6537 53.5514 21.2069C53.7753 21.76 54.0848 22.2408 54.4799 22.6491C54.875 23.0442 55.336 23.3603 55.8628 23.5974C56.3897 23.8213 56.9626 23.9332 57.5816 23.9332Z" fill="#C1F6ED"/>
<path d="M66.1652 26.3435V25.1581L68.9508 22.7676C69.1747 22.5569 69.3459 22.3659 69.4645 22.1947C69.583 22.0103 69.6423 21.8259 69.6423 21.6415C69.6423 21.3781 69.5369 21.1674 69.3262 21.0093C69.1286 20.8381 68.8718 20.7525 68.5557 20.7525C68.2264 20.7525 67.9235 20.8183 67.6469 20.95C67.3703 21.0818 67.0608 21.2991 66.7184 21.602L65.7898 20.4957C66.2113 20.1269 66.6591 19.8437 67.1332 19.6461C67.6206 19.4486 68.1145 19.3432 68.6149 19.33C69.392 19.3432 70.0242 19.5539 70.5115 19.9622C71.012 20.3574 71.2623 20.8842 71.2623 21.5427C71.2623 21.9379 71.1569 22.3066 70.9462 22.6491C70.7486 22.9915 70.4259 23.3537 69.9781 23.7357L68.5952 24.9605H71.3215V26.3435H66.1652Z" fill="#C1F6ED"/>
</svg>
