<svg width="109" height="108" viewBox="0 0 109 108" fill="none" xmlns="http://www.w3.org/2000/svg">
<path d="M107.25 53.5884C107.25 82.4851 83.6421 105.927 54.5 105.927C25.3579 105.927 1.75 82.4851 1.75 53.5884C1.75 24.6917 25.3579 1.25 54.5 1.25C83.6421 1.25 107.25 24.6917 107.25 53.5884Z" stroke="#C1F6ED" stroke-width="2.5"/>
<path d="M30.2459 50.4708C48.3619 22.8168 43.4399 18.0708 43.4399 11.689C52.0445 11.689 64.1372 42.1253 63.4856 57.3435C67.3974 57.3435 65.2565 35.7435 65.7453 25.4344C84.9982 42.6162 97.508 92.689 54.4996 92.689C25.3487 92.689 23.1346 61.3262 30.2459 50.4708Z" fill="#C1F6ED" stroke="#C1F6ED" stroke-width="2.5" stroke-linejoin="round"/>
<path d="M33.8367 62.7256C33.5898 72.3018 38.5782 90.2524 60.5074 85.4451" stroke="#404040" stroke-width="8.75" stroke-linecap="round" stroke-linejoin="round"/>
</svg>
